<svg width="41" height="41" viewBox="0 0 41 41" fill="none" xmlns="http://www.w3.org/2000/svg">
<g clip-path="url(#clip0_1_49)">
<path d="M29.6531 18.3031C29.5489 18.3031 29.4708 18.2771 29.4187 18.225C29.3666 18.1729 29.2625 18.1208 29.1062 18.0688L13.5593 2.52188C13.4031 2.41771 13.325 2.31355 13.325 2.20938C13.325 2.10521 13.2989 2.00105 13.2468 1.89688C13.351 1.79271 13.4291 1.70157 13.4812 1.62344C13.5333 1.54532 13.6375 1.48021 13.7937 1.42813C14.3145 1.2198 14.8484 1.05053 15.3953 0.920319C15.9421 0.790112 16.45 0.672924 16.9187 0.568756C17.5437 0.464588 18.1036 0.386463 18.5984 0.334381C19.0932 0.282299 19.6531 0.256256 20.2781 0.256256C21.0593 0.256256 21.8927 0.308338 22.7781 0.412506C23.6635 0.516674 24.4968 0.672924 25.2781 0.881256C26.1635 1.08959 26.9838 1.35001 27.739 1.66251C28.4942 1.97501 29.2625 2.31355 30.0437 2.67813C30.0958 2.73021 30.1609 2.80834 30.239 2.91251C30.3171 3.01667 30.3302 3.14688 30.2781 3.30313L30.3562 17.6C30.3041 17.7563 30.252 17.8865 30.2 17.9906C30.1479 18.0948 30.0437 18.1729 29.8875 18.225C29.8875 18.225 29.8484 18.238 29.7703 18.2641C29.6921 18.2901 29.6531 18.3031 29.6531 18.3031ZM15.2 2.36563L29.0281 16.0375L28.95 3.69376C28.377 3.32917 27.726 3.01667 26.9968 2.75626C26.2677 2.49584 25.5645 2.28751 24.8875 2.13126C24.0541 1.97501 23.2729 1.8448 22.5437 1.74063C21.8145 1.63646 21.0333 1.58438 20.2 1.58438C19.8354 1.58438 19.4317 1.5974 18.989 1.62344C18.5463 1.64949 18.1427 1.71459 17.7781 1.81876C17.3093 1.87084 16.8796 1.93594 16.489 2.01407C16.0984 2.09219 15.6687 2.20938 15.2 2.36563ZM37.6218 28.3031H29.575C29.4708 28.3031 29.3406 28.238 29.1843 28.1078C29.0281 27.9776 28.976 27.8083 29.0281 27.6L28.95 3.22501C29.002 3.12084 29.0411 3.01667 29.0671 2.91251C29.0932 2.80834 29.1843 2.73021 29.3406 2.67813C29.3927 2.62605 29.4968 2.60001 29.6531 2.60001C29.8093 2.60001 29.9135 2.62605 29.9656 2.67813C31.5281 3.61563 32.9213 4.73542 34.1453 6.03751C35.3692 7.33959 36.45 8.74584 37.3875 10.2563C38.1687 11.7667 38.8197 13.3552 39.3406 15.0219C39.8614 16.6885 40.0958 18.3813 40.0437 20.1C40.0958 20.6729 40.0697 21.2719 39.9656 21.8969C39.8614 22.5219 39.7572 23.1469 39.6531 23.7719C39.4447 24.3969 39.2364 25.0479 39.0281 25.725C38.8197 26.4021 38.5333 27.1052 38.1687 27.8344C38.1687 27.9906 38.1036 28.1078 37.9734 28.1859C37.8432 28.2641 37.726 28.3031 37.6218 28.3031ZM30.2781 26.8969H37.2312C37.4395 26.2719 37.6479 25.6599 37.8562 25.0609C38.0645 24.462 38.2208 23.876 38.325 23.3031C38.4812 22.7302 38.5854 22.1833 38.6375 21.6625C38.6895 21.1417 38.7416 20.6208 38.7937 20.1C38.7416 18.5896 38.5203 17.0922 38.1296 15.6078C37.739 14.1234 37.1531 12.7302 36.3718 11.4281C35.6947 10.074 34.8354 8.81094 33.7937 7.63907C32.752 6.46719 31.6062 5.41251 30.3562 4.47501L30.2781 26.8969ZM29.6531 28.3031H10.9812C10.825 28.3031 10.6687 28.238 10.5125 28.1078C10.3562 27.9776 10.3041 27.8083 10.3562 27.6L10.2781 18.3813L2.15308 25.725C1.99683 25.7771 1.87964 25.8162 1.80151 25.8422C1.72339 25.8682 1.6062 25.8813 1.44995 25.8813C1.39787 25.8292 1.31974 25.7641 1.21558 25.6859C1.11141 25.6078 1.05933 25.5167 1.05933 25.4125C0.903076 24.9438 0.785889 24.488 0.707764 24.0453C0.629639 23.6026 0.538493 23.1469 0.434326 22.6781C0.434326 22.2615 0.395264 21.8318 0.317139 21.3891C0.239014 20.9464 0.225993 20.5167 0.278076 20.1C0.225993 18.0167 0.538493 15.9984 1.21558 14.0453C1.89266 12.0922 2.77808 10.3083 3.87183 8.69376C5.12183 7.02709 6.55412 5.56876 8.1687 4.31876C9.78328 3.06876 11.6062 2.10521 13.6375 1.42813C13.7416 1.37605 13.8588 1.36303 13.989 1.38907C14.1192 1.41511 14.2104 1.48021 14.2625 1.58438L30.1218 17.1313C30.1739 17.1833 30.226 17.2484 30.2781 17.3266C30.3302 17.4047 30.3302 17.4958 30.2781 17.6L30.3562 27.6C30.3041 27.8083 30.226 27.9776 30.1218 28.1078C30.0177 28.238 29.8354 28.3031 29.575 28.3031H29.6531ZM11.6843 26.8969H28.95L29.0281 17.9125L20.2781 9.31876L11.6843 17.1313L11.6062 26.8969H11.6843ZM13.7156 2.83438C11.8406 3.51146 10.1739 4.43594 8.71558 5.60782C7.25724 6.77969 5.9812 8.12084 4.88745 9.63126C3.89787 11.1417 3.09058 12.7823 2.46558 14.5531C1.84058 16.324 1.55412 18.1729 1.6062 20.1C1.55412 20.4125 1.55412 20.725 1.6062 21.0375C1.65828 21.35 1.68433 21.6625 1.68433 21.975C1.78849 22.3396 1.8536 22.6781 1.87964 22.9906C1.90568 23.3031 1.97078 23.6417 2.07495 24.0063L10.4343 16.4281C10.4864 16.376 10.5255 16.337 10.5515 16.3109C10.5776 16.2849 10.6427 16.2458 10.7468 16.1938L19.3406 8.38126L13.7156 2.83438ZM10.9812 37.6C10.9812 37.6 10.9421 37.6 10.864 37.6C10.7859 37.6 10.7468 37.574 10.7468 37.5219C9.44474 36.949 8.31193 36.2849 7.34839 35.5297C6.38485 34.7745 5.48641 33.876 4.65308 32.8344C3.87183 31.8448 3.1687 30.738 2.5437 29.5141C1.9187 28.2901 1.42391 26.9229 1.05933 25.4125C1.00724 25.2563 1.00724 25.126 1.05933 25.0219C1.11141 24.9177 1.16349 24.8135 1.21558 24.7094L10.5906 16.35C10.6427 16.2458 10.7468 16.1938 10.9031 16.1938C11.0593 16.1938 11.1635 16.2198 11.2156 16.2719C11.3718 16.324 11.476 16.4021 11.5281 16.5063C11.5802 16.6104 11.6322 16.7146 11.6843 16.8188L11.6062 36.8969C11.6583 37.0531 11.6453 37.1703 11.5671 37.2484C11.489 37.3266 11.4239 37.4177 11.3718 37.5219C11.2677 37.5219 11.2026 37.5349 11.1765 37.5609C11.1505 37.587 11.0854 37.6 10.9812 37.6ZM2.46558 25.4125C2.77808 26.6625 3.20776 27.8083 3.75464 28.85C4.30151 29.8917 4.86141 30.8552 5.43433 31.7406C6.11141 32.574 6.84058 33.3422 7.62183 34.0453C8.40308 34.7484 9.31453 35.3604 10.3562 35.8813L10.2781 18.3813L2.46558 25.4125ZM20.0437 39.9438C19.2625 39.9438 18.4421 39.8917 17.5828 39.7875C16.7234 39.6833 15.9291 39.5271 15.2 39.3188C14.3666 39.1104 13.5854 38.85 12.8562 38.5375C12.127 38.225 11.3718 37.8865 10.5906 37.5219C10.5385 37.4698 10.4734 37.3917 10.3953 37.2875C10.3171 37.1833 10.3041 37.0531 10.3562 36.8969L10.2781 27.6C10.3302 27.3917 10.4083 27.2224 10.5125 27.0922C10.6166 26.962 10.7989 26.8969 11.0593 26.8969H37.5437C37.7 26.8969 37.8171 26.9229 37.8953 26.975C37.9734 27.0271 38.0645 27.1052 38.1687 27.2094C38.2208 27.3135 38.2598 27.4177 38.2859 27.5219C38.3119 27.626 38.2729 27.7302 38.1687 27.8344C37.4395 29.7094 36.4369 31.3891 35.1609 32.8734C33.8848 34.3578 32.4916 35.6208 30.9812 36.6625C29.3666 37.7042 27.6479 38.5115 25.825 39.0844C24.002 39.6573 22.075 39.9438 20.0437 39.9438ZM11.6843 36.5063C12.2572 36.8708 12.8953 37.1833 13.5984 37.4438C14.3015 37.7042 14.9916 37.9125 15.6687 38.0688C16.45 38.225 17.1921 38.3552 17.8953 38.4594C18.5984 38.5635 19.3406 38.6156 20.1218 38.6156C21.7885 38.6156 23.4682 38.3682 25.1609 37.8734C26.8536 37.3787 28.377 36.6885 29.7312 35.8031C31.2416 34.9177 32.5567 33.837 33.6765 32.5609C34.7963 31.2849 35.7729 29.8656 36.6062 28.3031H11.6062L11.6843 36.5063Z" fill="#0E90E4"/>
</g>
<defs>
<clipPath id="clip0_1_49">
<rect width="40" height="40" fill="white" transform="matrix(1 0 0 -1 0.199951 40.1)"/>
</clipPath>
</defs>
</svg>
