<svg width="45" height="41" viewBox="0 0 45 41" fill="none" xmlns="http://www.w3.org/2000/svg">
<g clip-path="url(#clip0_1_64)">
<path d="M5.20117 34.9437H0.904297C0.695964 34.9437 0.526693 34.8786 0.396484 34.7484C0.266276 34.6182 0.201172 34.4489 0.201172 34.2406V28.9281C0.201172 28.7198 0.266276 28.5505 0.396484 28.4203C0.526693 28.2901 0.695964 28.225 0.904297 28.225H5.20117C6.34701 28.225 7.37565 28.0427 8.28711 27.6781C9.19857 27.3135 10.071 26.7406 10.9043 25.9594C11.7376 25.1781 12.5449 24.1625 13.3262 22.9125C14.1074 21.6625 14.9668 20.1781 15.9043 18.4594C16.6855 17.001 17.5449 15.5166 18.4824 14.0062C19.4199 12.4958 20.5137 11.1156 21.7637 9.8656C22.9616 8.6156 24.3809 7.58695 26.0215 6.77966C27.6621 5.97237 29.6022 5.56873 31.8418 5.56873H32.2324V1.66248C32.2324 1.55831 32.2585 1.45414 32.3105 1.34998C32.3626 1.24581 32.4408 1.16768 32.5449 1.1156C32.6491 1.06352 32.7663 1.03748 32.8965 1.03748C33.0267 1.03748 33.1439 1.06352 33.248 1.1156L44.2637 7.83435C44.3678 7.88643 44.446 7.96456 44.498 8.06873C44.5501 8.17289 44.5762 8.3031 44.5762 8.45935C44.5762 8.56352 44.5501 8.66768 44.498 8.77185C44.446 8.87602 44.3678 8.95414 44.2637 9.00623L33.248 15.725C33.1439 15.7771 33.0267 15.8031 32.8965 15.8031C32.7663 15.8031 32.6491 15.7771 32.5449 15.725C32.4408 15.6729 32.3626 15.5948 32.3105 15.4906C32.2585 15.3864 32.2324 15.2823 32.2324 15.1781V12.2875H31.6855C30.5397 12.2875 29.5241 12.4698 28.6387 12.8344C27.7533 13.1989 26.9199 13.7979 26.1387 14.6312C25.3574 15.4125 24.5892 16.4021 23.834 17.6C23.0788 18.7979 22.2585 20.2041 21.373 21.8187C20.5397 23.3812 19.6543 24.9307 18.7168 26.4672C17.7793 28.0036 16.6855 29.3969 15.4355 30.6469C14.1855 31.8969 12.7272 32.9255 11.0605 33.7328C9.39388 34.5401 7.44076 34.9437 5.20117 34.9437ZM1.5293 33.6156H5.20117C7.28451 33.6156 9.08138 33.238 10.5918 32.4828C12.1022 31.7276 13.4564 30.751 14.6543 29.5531C15.8001 28.3552 16.8158 27.0271 17.7012 25.5687C18.5866 24.1104 19.4199 22.6521 20.2012 21.1937C21.0866 19.5791 21.9199 18.1338 22.7012 16.8578C23.4824 15.5817 24.3158 14.5271 25.2012 13.6937C26.0866 12.8083 27.0501 12.1312 28.0918 11.6625C29.1335 11.1937 30.3314 10.9594 31.6855 10.9594H32.8574C33.0658 10.9594 33.235 11.0245 33.3652 11.1547C33.4954 11.2849 33.5605 11.4281 33.5605 11.5844V13.9281L42.623 8.45935L33.5605 2.91248V6.27185C33.5605 6.4281 33.4954 6.57133 33.3652 6.70154C33.235 6.83175 33.0658 6.89685 32.8574 6.89685H31.8418C29.8105 6.89685 28.0527 7.26143 26.5684 7.9906C25.084 8.71977 23.7689 9.68331 22.623 10.8812C21.4772 12.0271 20.4616 13.3291 19.5762 14.7875C18.6908 16.2458 17.8574 17.6781 17.0762 19.0844C16.2428 20.6989 15.4225 22.1442 14.6152 23.4203C13.8079 24.6963 12.9355 25.8031 11.998 26.7406C11.1126 27.626 10.11 28.3161 8.99023 28.8109C7.87044 29.3057 6.60742 29.5531 5.20117 29.5531H1.5293V33.6156ZM32.8574 39.1625C32.8053 39.1625 32.7533 39.1625 32.7012 39.1625C32.6491 39.1625 32.597 39.1364 32.5449 39.0844C32.4408 39.0323 32.3626 38.9541 32.3105 38.85C32.2585 38.7458 32.2324 38.6416 32.2324 38.5375V34.9437H31.8418C30.071 34.9437 28.4954 34.6703 27.1152 34.1234C25.735 33.5765 24.498 32.8604 23.4043 31.975C22.3105 31.1416 21.36 30.1911 20.5527 29.1234C19.7454 28.0557 19.0033 27.001 18.3262 25.9594C18.222 25.8031 18.196 25.6338 18.248 25.4515C18.3001 25.2692 18.4043 25.126 18.5605 25.0219C18.7168 24.9177 18.8861 24.8916 19.0684 24.9437C19.2507 24.9958 19.3939 25.1 19.498 25.2562C20.123 26.2979 20.8262 27.3135 21.6074 28.3031C22.3887 29.2927 23.2741 30.1781 24.2637 30.9594C25.2533 31.7406 26.373 32.3786 27.623 32.8734C28.873 33.3682 30.2793 33.6156 31.8418 33.6156H32.8574C33.0658 33.6156 33.235 33.6807 33.3652 33.8109C33.4954 33.9411 33.5605 34.0844 33.5605 34.2406V37.2875L42.623 31.8187L33.5605 26.2719V29.2406C33.5605 29.3448 33.5345 29.4359 33.4824 29.514C33.4303 29.5922 33.3783 29.6573 33.3262 29.7094C33.2741 29.8135 33.209 29.8786 33.1309 29.9047C33.0527 29.9307 32.9616 29.9437 32.8574 29.9437H31.7637C30.4616 29.9437 29.3158 29.7094 28.3262 29.2406C27.3366 28.7719 26.4251 28.1469 25.5918 27.3656C24.8105 26.5323 24.0553 25.5817 23.3262 24.514C22.597 23.4463 21.8939 22.2614 21.2168 20.9594C21.1126 20.8031 21.0866 20.6338 21.1387 20.4515C21.1908 20.2692 21.2949 20.1521 21.4512 20.1C21.6074 19.9958 21.7767 19.9698 21.959 20.0219C22.1413 20.0739 22.2845 20.1781 22.3887 20.3344C23.1178 21.6885 23.834 22.8864 24.5371 23.9281C25.2402 24.9698 25.9564 25.8291 26.6855 26.5062C27.4147 27.1833 28.196 27.7041 29.0293 28.0687C29.8626 28.4333 30.7741 28.6156 31.7637 28.6156H32.2324V25.0219C32.2324 24.9177 32.2585 24.8135 32.3105 24.7094C32.3626 24.6052 32.4408 24.5271 32.5449 24.475C32.6491 24.4229 32.7663 24.3969 32.8965 24.3969C33.0267 24.3969 33.1439 24.4229 33.248 24.475L44.2637 31.1937C44.3678 31.2458 44.446 31.3239 44.498 31.4281C44.5501 31.5323 44.5762 31.6625 44.5762 31.8187C44.5762 31.9229 44.5501 32.0271 44.498 32.1312C44.446 32.2354 44.3678 32.3135 44.2637 32.3656L33.248 39.0844C33.196 39.0844 33.1309 39.0974 33.0527 39.1234C32.9746 39.1495 32.9095 39.1625 32.8574 39.1625ZM15.6699 20.9594C15.5658 20.9594 15.4616 20.9333 15.3574 20.8812C15.2533 20.8291 15.1751 20.751 15.123 20.6469C14.3418 19.1885 13.5866 17.9385 12.8574 16.8969C12.1283 15.8552 11.373 14.9958 10.5918 14.3187C9.86263 13.6416 9.05534 13.1338 8.16992 12.7953C7.28451 12.4567 6.29492 12.2875 5.20117 12.2875H0.904297C0.695964 12.2875 0.526693 12.2224 0.396484 12.0922C0.266276 11.962 0.201172 11.7927 0.201172 11.5844V6.27185C0.201172 6.06352 0.266276 5.89425 0.396484 5.76404C0.526693 5.63383 0.695964 5.56873 0.904297 5.56873H5.20117C7.02409 5.56873 8.65169 5.84216 10.084 6.38904C11.5163 6.93591 12.7793 7.65206 13.873 8.53748C15.0189 9.42289 16.0215 10.4125 16.8809 11.5062C17.7402 12.6 18.5085 13.7198 19.1855 14.8656C19.2897 15.0219 19.3158 15.1911 19.2637 15.3734C19.2116 15.5557 19.1074 15.6989 18.9512 15.8031C18.7949 15.9073 18.6257 15.9333 18.4434 15.8812C18.2611 15.8291 18.1178 15.725 18.0137 15.5687C17.3887 14.5271 16.6855 13.4854 15.9043 12.4437C15.123 11.4021 14.2116 10.4646 13.1699 9.63123C12.1283 8.84998 10.9564 8.19893 9.6543 7.6781C8.35221 7.15727 6.86784 6.89685 5.20117 6.89685H1.5293V10.9594H5.20117C6.45117 10.9594 7.58398 11.1416 8.59961 11.5062C9.61523 11.8708 10.5397 12.4437 11.373 13.225C12.2585 13.9541 13.0918 14.8916 13.873 16.0375C14.6543 17.1833 15.4616 18.4854 16.2949 19.9437C16.347 20.1 16.347 20.2692 16.2949 20.4515C16.2428 20.6338 16.1387 20.7771 15.9824 20.8812C15.9303 20.9333 15.8783 20.9594 15.8262 20.9594C15.7741 20.9594 15.722 20.9594 15.6699 20.9594Z" fill="#0E90E4"/>
</g>
<defs>
<clipPath id="clip0_1_64">
<rect width="44.69" height="40" fill="white" transform="matrix(1 0 0 -1 0.199951 40.1)"/>
</clipPath>
</defs>
</svg>
