<svg width="41" height="34" viewBox="0 0 41 34" fill="none" xmlns="http://www.w3.org/2000/svg">
<path d="M39.4968 33.7406H0.824951C0.668701 33.7406 0.512451 33.6755 0.356201 33.5453C0.199951 33.4151 0.147868 33.2719 0.199951 33.1156L0.121826 1.08438C0.17391 0.928131 0.252035 0.784901 0.356201 0.654694C0.460368 0.524487 0.642659 0.459381 0.903076 0.459381H39.4187C39.6791 0.459381 39.8614 0.524487 39.9656 0.654694C40.0697 0.784901 40.1479 0.928131 40.2 1.08438L40.1218 33.1156C40.1739 33.2719 40.1218 33.4151 39.9656 33.5453C39.8093 33.6755 39.6531 33.7406 39.4968 33.7406ZM1.44995 32.4125H38.8718L38.7937 1.78751H1.52808L1.44995 32.4125ZM38.8718 8.42813H1.44995C1.34578 8.42813 1.21558 8.36303 1.05933 8.23282C0.903076 8.10261 0.850993 7.95938 0.903076 7.80313C0.850993 7.5948 0.903076 7.42553 1.05933 7.29532C1.21558 7.16511 1.34578 7.10001 1.44995 7.10001H38.8718C38.976 7.10001 39.1062 7.16511 39.2625 7.29532C39.4187 7.42553 39.4708 7.5948 39.4187 7.80313C39.4708 7.95938 39.4187 8.10261 39.2625 8.23282C39.1062 8.36303 38.976 8.42813 38.8718 8.42813ZM5.43433 4.75626C5.48641 5.01667 5.42131 5.22501 5.23901 5.38126C5.05672 5.53751 4.86141 5.61563 4.65308 5.61563C4.39266 5.61563 4.19735 5.53751 4.06714 5.38126C3.93693 5.22501 3.84578 5.01667 3.7937 4.75626C3.84578 4.54792 3.93693 4.35261 4.06714 4.17032C4.19735 3.98803 4.39266 3.89688 4.65308 3.89688C4.86141 3.89688 5.05672 3.98803 5.23901 4.17032C5.42131 4.35261 5.48641 4.54792 5.43433 4.75626ZM8.87183 4.75626C8.81974 5.01667 8.71558 5.22501 8.55933 5.38126C8.40308 5.53751 8.19474 5.61563 7.93433 5.61563C7.77808 5.61563 7.59578 5.53751 7.38745 5.38126C7.17912 5.22501 7.10099 5.01667 7.15308 4.75626C7.10099 4.54792 7.17912 4.35261 7.38745 4.17032C7.59578 3.98803 7.77808 3.89688 7.93433 3.89688C8.19474 3.89688 8.40308 3.98803 8.55933 4.17032C8.71558 4.35261 8.81974 4.54792 8.87183 4.75626ZM12.075 4.75626C12.127 5.01667 12.0619 5.22501 11.8796 5.38126C11.6973 5.53751 11.5281 5.61563 11.3718 5.61563C11.0593 5.61563 10.838 5.53751 10.7078 5.38126C10.5776 5.22501 10.4864 5.01667 10.4343 4.75626C10.4864 4.54792 10.5776 4.35261 10.7078 4.17032C10.838 3.98803 11.0593 3.89688 11.3718 3.89688C11.5281 3.89688 11.6973 3.98803 11.8796 4.17032C12.0619 4.35261 12.127 4.54792 12.075 4.75626ZM24.6531 20.6938C24.3927 20.6938 24.2104 20.6287 24.1062 20.4984C24.002 20.3682 23.9239 20.225 23.8718 20.0688L23.95 18.8188C23.8979 18.6104 23.95 18.4412 24.1062 18.3109C24.2625 18.1807 24.4187 18.1156 24.575 18.1156C24.7833 18.1156 24.9395 18.1807 25.0437 18.3109C25.1479 18.4412 25.226 18.6104 25.2781 18.8188L25.2 20.0688C25.252 20.225 25.2 20.3682 25.0437 20.4984C24.8875 20.6287 24.7572 20.6938 24.6531 20.6938ZM24.575 29.7563C24.4187 29.7563 24.2625 29.6912 24.1062 29.5609C23.95 29.4307 23.8979 29.2615 23.95 29.0531L23.8718 27.8031C23.9239 27.6469 24.002 27.5037 24.1062 27.3734C24.2104 27.2432 24.3927 27.1781 24.6531 27.1781C24.7572 27.1781 24.8875 27.2432 25.0437 27.3734C25.2 27.5037 25.252 27.6469 25.2 27.8031L25.2781 29.0531C25.226 29.2615 25.1479 29.4307 25.0437 29.5609C24.9395 29.6912 24.7833 29.7563 24.575 29.7563ZM20.7468 24.6H19.4187C19.2625 24.6 19.1062 24.5349 18.95 24.4047C18.7937 24.2745 18.7416 24.1052 18.7937 23.8969C18.7416 23.7406 18.7937 23.5974 18.95 23.4672C19.1062 23.337 19.2625 23.2719 19.4187 23.2719H20.7468C20.851 23.2719 20.9812 23.337 21.1375 23.4672C21.2937 23.5974 21.3458 23.7406 21.2937 23.8969C21.3458 24.1052 21.2937 24.2745 21.1375 24.4047C20.9812 24.5349 20.851 24.6 20.7468 24.6ZM29.6531 24.6H28.4812C28.2729 24.6 28.1166 24.5349 28.0125 24.4047C27.9083 24.2745 27.8302 24.1052 27.7781 23.8969C27.8302 23.7406 27.9083 23.5974 28.0125 23.4672C28.1166 23.337 28.2729 23.2719 28.4812 23.2719H29.6531C29.9135 23.2719 30.0958 23.337 30.2 23.4672C30.3041 23.5974 30.3822 23.7406 30.4343 23.8969C30.3822 24.1052 30.3041 24.2745 30.2 24.4047C30.0958 24.5349 29.9135 24.6 29.6531 24.6ZM21.8406 21.8656C21.7364 21.8656 21.6583 21.8526 21.6062 21.8266C21.5541 21.8005 21.45 21.7354 21.2937 21.6313L20.5125 20.7719C20.3041 20.6677 20.213 20.5115 20.239 20.3031C20.2651 20.0948 20.3302 19.9385 20.4343 19.8344C20.5906 19.6781 20.7598 19.6 20.9421 19.6C21.1244 19.6 21.2937 19.6781 21.45 19.8344L22.2312 20.6938C22.4395 20.85 22.5307 21.0193 22.5046 21.2016C22.4786 21.3839 22.4135 21.5271 22.3093 21.6313C22.2052 21.7354 22.127 21.8005 22.075 21.8266C22.0229 21.8526 21.9187 21.8656 21.7625 21.8656H21.8406ZM28.2468 28.2719C28.0906 28.2719 27.9864 28.2458 27.9343 28.1938C27.8822 28.1417 27.8041 28.0896 27.7 28.0375L26.9187 27.1781C26.7104 27.0219 26.6192 26.8526 26.6453 26.6703C26.6713 26.488 26.7364 26.3448 26.8406 26.2406C26.9968 26.0844 27.1531 26.0063 27.3093 26.0063C27.4656 26.0063 27.6479 26.0844 27.8562 26.2406L28.6375 27.1C28.8458 27.2042 28.9369 27.3604 28.9109 27.5688C28.8848 27.7771 28.8197 27.9333 28.7156 28.0375C28.6114 28.0896 28.5333 28.1417 28.4812 28.1938C28.4291 28.2458 28.325 28.2719 28.1687 28.2719H28.2468ZM20.9812 28.2719C20.825 28.2719 20.7208 28.2458 20.6687 28.1938C20.6166 28.1417 20.5385 28.0896 20.4343 28.0375C20.3822 27.9333 20.3432 27.7771 20.3171 27.5688C20.2911 27.3604 20.3562 27.2042 20.5125 27.1L21.2937 26.2406C21.502 26.0844 21.6843 26.0063 21.8406 26.0063C21.9968 26.0063 22.1531 26.0844 22.3093 26.2406C22.4135 26.3448 22.4786 26.488 22.5046 26.6703C22.5307 26.8526 22.4395 27.0219 22.2312 27.1781L21.45 28.0375C21.3458 28.0896 21.2677 28.1417 21.2156 28.1938C21.1635 28.2458 21.0593 28.2719 20.9031 28.2719H20.9812ZM27.3875 21.8656C27.2312 21.8656 27.127 21.8526 27.075 21.8266C27.0229 21.8005 26.9447 21.7354 26.8406 21.6313C26.7364 21.5271 26.6713 21.3839 26.6453 21.2016C26.6192 21.0193 26.7104 20.85 26.9187 20.6938L27.7 19.8344C27.8562 19.6781 28.0255 19.6 28.2078 19.6C28.3901 19.6 28.5593 19.6781 28.7156 19.8344C28.8197 19.9385 28.8848 20.0948 28.9109 20.3031C28.9369 20.5115 28.8458 20.6677 28.6375 20.7719L27.8562 21.6313C27.7 21.7354 27.5958 21.8005 27.5437 21.8266C27.4916 21.8526 27.4135 21.8656 27.3093 21.8656H27.3875ZM24.6531 28.1938C23.976 28.1938 23.377 28.0766 22.8562 27.8422C22.3354 27.6078 21.8666 27.3083 21.45 26.9438C21.0854 26.5271 20.7729 26.0453 20.5125 25.4984C20.252 24.9516 20.1479 24.3917 20.2 23.8188C20.1479 23.1938 20.252 22.6078 20.5125 22.0609C20.7729 21.5141 21.0854 21.0583 21.45 20.6938C21.8666 20.2771 22.3354 19.9516 22.8562 19.7172C23.377 19.4828 23.976 19.3656 24.6531 19.3656C25.1739 19.3656 25.7208 19.4828 26.2937 19.7172C26.8666 19.9516 27.3093 20.2771 27.6218 20.6938C28.0906 21.0583 28.4291 21.5141 28.6375 22.0609C28.8458 22.6078 28.976 23.1938 29.0281 23.8188C28.976 24.3917 28.8458 24.9516 28.6375 25.4984C28.4291 26.0453 28.0906 26.5271 27.6218 26.9438C27.3093 27.3083 26.8666 27.6078 26.2937 27.8422C25.7208 28.0766 25.1739 28.1938 24.6531 28.1938ZM24.575 20.6938C24.1583 20.6938 23.7546 20.7719 23.364 20.9281C22.9734 21.0844 22.6739 21.3188 22.4656 21.6313C22.101 21.8917 21.8536 22.2172 21.7234 22.6078C21.5932 22.9984 21.502 23.4021 21.45 23.8188C21.502 24.2354 21.5932 24.626 21.7234 24.9906C21.8536 25.3552 22.101 25.6938 22.4656 26.0063C22.6739 26.2667 22.9734 26.475 23.364 26.6313C23.7546 26.7875 24.1583 26.8656 24.575 26.8656C25.0437 26.8656 25.4473 26.7875 25.7859 26.6313C26.1244 26.475 26.45 26.2667 26.7625 26.0063C27.0229 25.6938 27.2442 25.3552 27.4265 24.9906C27.6088 24.626 27.6739 24.2354 27.6218 23.8188C27.6739 23.4021 27.6088 22.9984 27.4265 22.6078C27.2442 22.2172 27.0229 21.8917 26.7625 21.6313C26.45 21.3188 26.1244 21.0844 25.7859 20.9281C25.4473 20.7719 25.0437 20.6938 24.575 20.6938ZM19.6531 13.6625C19.3927 13.6625 19.2104 13.5974 19.1062 13.4672C19.002 13.337 18.9239 13.1677 18.8718 12.9594L18.95 12.1C18.8979 11.9438 18.95 11.8005 19.1062 11.6703C19.2625 11.5401 19.4187 11.475 19.575 11.475C19.7833 11.475 19.9395 11.5401 20.0437 11.6703C20.1479 11.8005 20.226 11.9438 20.2781 12.1L20.2 12.9594C20.252 13.1677 20.2 13.337 20.0437 13.4672C19.8875 13.5974 19.7572 13.6625 19.6531 13.6625ZM19.575 19.4438C19.4187 19.4438 19.2625 19.3787 19.1062 19.2484C18.95 19.1182 18.8979 18.975 18.95 18.8188L18.8718 17.9594C18.9239 17.8031 19.002 17.6469 19.1062 17.4906C19.2104 17.3344 19.3927 17.2563 19.6531 17.2563C19.7572 17.2563 19.8875 17.3214 20.0437 17.4516C20.2 17.5818 20.252 17.751 20.2 17.9594L20.2781 18.8188C20.226 18.975 20.1479 19.1182 20.0437 19.2484C19.9395 19.3787 19.7833 19.4438 19.575 19.4438ZM17.1531 16.1625H16.2156C16.0593 16.1625 15.9031 16.0974 15.7468 15.9672C15.5906 15.837 15.5385 15.6677 15.5906 15.4594C15.5385 15.3031 15.5906 15.1599 15.7468 15.0297C15.9031 14.8995 16.0593 14.8344 16.2156 14.8344H17.1531C17.2572 14.8344 17.3875 14.8995 17.5437 15.0297C17.7 15.1599 17.752 15.3031 17.7 15.4594C17.752 15.6677 17.7 15.837 17.5437 15.9672C17.3875 16.0974 17.2572 16.1625 17.1531 16.1625ZM22.8562 16.1625H22.1531C21.8927 16.1625 21.7104 16.0974 21.6062 15.9672C21.502 15.837 21.4239 15.6677 21.3718 15.4594C21.4239 15.3031 21.502 15.1599 21.6062 15.0297C21.7104 14.8995 21.8927 14.8344 22.1531 14.8344H22.8562C23.1166 14.8344 23.2989 14.8995 23.4031 15.0297C23.5072 15.1599 23.5854 15.3031 23.6375 15.4594C23.5854 15.6677 23.5072 15.837 23.4031 15.9672C23.2989 16.0974 23.1166 16.1625 22.8562 16.1625ZM17.8562 14.3656C17.7 14.3656 17.5958 14.3526 17.5437 14.3266C17.4916 14.3005 17.4135 14.2354 17.3093 14.1313L16.7625 13.5844C16.6062 13.4281 16.5411 13.2589 16.5671 13.0766C16.5932 12.8943 16.6322 12.751 16.6843 12.6469C16.8927 12.4906 17.075 12.4125 17.2312 12.4125C17.3875 12.4125 17.5437 12.4906 17.7 12.6469L18.2468 13.1938C18.4031 13.35 18.4682 13.5193 18.4421 13.7016C18.4161 13.8839 18.377 14.0271 18.325 14.1313C18.2208 14.2354 18.1427 14.3005 18.0906 14.3266C18.0385 14.3526 17.9343 14.3656 17.7781 14.3656H17.8562ZM21.9968 18.5063C21.8406 18.5063 21.7364 18.4802 21.6843 18.4281C21.6322 18.376 21.5541 18.324 21.45 18.2719L20.9031 17.725C20.7468 17.5688 20.6817 17.3995 20.7078 17.2172C20.7338 17.0349 20.7729 16.8917 20.825 16.7875C21.0333 16.6313 21.2156 16.5531 21.3718 16.5531C21.5281 16.5531 21.6843 16.6313 21.8406 16.7875L22.3875 17.3344C22.5437 17.4906 22.6088 17.6599 22.5828 17.8422C22.5567 18.0245 22.5177 18.1677 22.4656 18.2719C22.3093 18.376 22.2052 18.4412 22.1531 18.4672C22.101 18.4932 22.0229 18.5063 21.9187 18.5063H21.9968ZM17.2312 18.5063C17.127 18.5063 17.0489 18.4802 16.9968 18.4281C16.9447 18.376 16.8406 18.324 16.6843 18.2719C16.6322 18.1677 16.5932 18.0245 16.5671 17.8422C16.5411 17.6599 16.6062 17.4906 16.7625 17.3344L17.3093 16.7875C17.4656 16.6313 17.6218 16.5531 17.7781 16.5531C17.9343 16.5531 18.1166 16.6313 18.325 16.7875C18.377 16.8917 18.4161 17.0349 18.4421 17.2172C18.4682 17.3995 18.4031 17.5688 18.2468 17.725L17.7 18.2719C17.5958 18.324 17.5177 18.376 17.4656 18.4281C17.4135 18.4802 17.3093 18.5063 17.1531 18.5063H17.2312ZM21.3718 14.3656C21.2677 14.3656 21.1765 14.3526 21.0984 14.3266C21.0203 14.3005 20.9291 14.2354 20.825 14.1313C20.7729 14.0271 20.7338 13.8839 20.7078 13.7016C20.6817 13.5193 20.7468 13.35 20.9031 13.1938L21.45 12.6469C21.6062 12.4906 21.7625 12.4125 21.9187 12.4125C22.075 12.4125 22.2572 12.4906 22.4656 12.6469C22.5177 12.751 22.5567 12.8943 22.5828 13.0766C22.6088 13.2589 22.5437 13.4281 22.3875 13.5844L21.8406 14.1313C21.7364 14.2354 21.6583 14.3005 21.6062 14.3266C21.5541 14.3526 21.45 14.3656 21.2937 14.3656H21.3718ZM19.6531 18.6625C19.1322 18.6625 18.6895 18.5714 18.325 18.3891C17.9604 18.2068 17.6218 17.9854 17.3093 17.725C17.0489 17.4125 16.8276 17.0609 16.6453 16.6703C16.463 16.2797 16.3979 15.876 16.45 15.4594C16.3979 15.0427 16.463 14.6391 16.6453 14.2484C16.8276 13.8578 17.0489 13.5063 17.3093 13.1938C17.6218 12.9333 17.9604 12.725 18.325 12.5688C18.6895 12.4125 19.1322 12.3344 19.6531 12.3344C20.0177 12.3344 20.4083 12.4125 20.825 12.5688C21.2416 12.725 21.5541 12.9333 21.7625 13.1938C22.127 13.5063 22.3744 13.8578 22.5046 14.2484C22.6348 14.6391 22.726 15.0427 22.7781 15.4594C22.726 15.876 22.6348 16.2797 22.5046 16.6703C22.3744 17.0609 22.127 17.4125 21.7625 17.725C21.5541 17.9854 21.2416 18.2068 20.825 18.3891C20.4083 18.5714 20.0177 18.6625 19.6531 18.6625ZM19.575 13.6625C19.3666 13.6625 19.1322 13.7016 18.8718 13.7797C18.6114 13.8578 18.4291 13.975 18.325 14.1313C18.1166 14.3396 17.9734 14.5479 17.8953 14.7563C17.8171 14.9646 17.752 15.199 17.7 15.4594C17.752 15.7198 17.8171 15.9542 17.8953 16.1625C17.9734 16.3708 18.1166 16.5792 18.325 16.7875C18.4291 16.9438 18.6114 17.074 18.8718 17.1781C19.1322 17.2823 19.3666 17.3344 19.575 17.3344C19.8354 17.3344 20.0697 17.2823 20.2781 17.1781C20.4864 17.074 20.6947 16.9438 20.9031 16.7875C21.0072 16.5792 21.1244 16.3708 21.2546 16.1625C21.3848 15.9542 21.4239 15.7198 21.3718 15.4594C21.4239 15.199 21.3848 14.9646 21.2546 14.7563C21.1244 14.5479 21.0072 14.3396 20.9031 14.1313C20.6947 13.975 20.4864 13.8578 20.2781 13.7797C20.0697 13.7016 19.8354 13.6625 19.575 13.6625ZM14.6531 23.6625C14.3927 23.6625 14.2104 23.5974 14.1062 23.4672C14.002 23.337 13.9239 23.1677 13.8718 22.9594L13.95 22.1C13.8979 21.9438 13.95 21.8005 14.1062 21.6703C14.2625 21.5401 14.4187 21.475 14.575 21.475C14.7833 21.475 14.9395 21.5401 15.0437 21.6703C15.1479 21.8005 15.226 21.9438 15.2781 22.1L15.2 22.9594C15.252 23.1677 15.2 23.337 15.0437 23.4672C14.8875 23.5974 14.7572 23.6625 14.6531 23.6625ZM14.575 29.4438C14.4187 29.4438 14.2625 29.3787 14.1062 29.2484C13.95 29.1182 13.8979 28.975 13.95 28.8188L13.8718 27.9594C13.9239 27.8031 14.002 27.6469 14.1062 27.4906C14.2104 27.3344 14.3927 27.2563 14.6531 27.2563C14.7572 27.2563 14.8875 27.3344 15.0437 27.4906C15.2 27.6469 15.252 27.8031 15.2 27.9594L15.2781 28.8188C15.226 28.975 15.1479 29.1182 15.0437 29.2484C14.9395 29.3787 14.7833 29.4438 14.575 29.4438ZM12.1531 26.1625H11.2156C11.0593 26.1625 10.9031 26.0974 10.7468 25.9672C10.5906 25.837 10.5385 25.6677 10.5906 25.4594C10.5385 25.3031 10.5906 25.1469 10.7468 24.9906C10.9031 24.8344 11.0593 24.7563 11.2156 24.7563H12.1531C12.2572 24.7563 12.3875 24.8344 12.5437 24.9906C12.7 25.1469 12.752 25.3031 12.7 25.4594C12.752 25.6677 12.7 25.837 12.5437 25.9672C12.3875 26.0974 12.2572 26.1625 12.1531 26.1625ZM17.8562 26.1625H17.1531C16.8927 26.1625 16.7104 26.0974 16.6062 25.9672C16.502 25.837 16.4239 25.6677 16.3718 25.4594C16.4239 25.3031 16.502 25.1469 16.6062 24.9906C16.7104 24.8344 16.8927 24.7563 17.1531 24.7563H17.8562C18.1166 24.7563 18.2989 24.8344 18.4031 24.9906C18.5072 25.1469 18.5854 25.3031 18.6375 25.4594C18.5854 25.6677 18.5072 25.837 18.4031 25.9672C18.2989 26.0974 18.1166 26.1625 17.8562 26.1625ZM12.8562 24.3656C12.7 24.3656 12.5958 24.3526 12.5437 24.3266C12.4916 24.3005 12.4135 24.2354 12.3093 24.1313L11.7625 23.5844C11.6062 23.4281 11.5411 23.2589 11.5671 23.0766C11.5932 22.8943 11.6322 22.751 11.6843 22.6469C11.8927 22.4906 12.075 22.4125 12.2312 22.4125C12.3875 22.4125 12.5437 22.4906 12.7 22.6469L13.2468 23.1938C13.4031 23.35 13.4682 23.5193 13.4421 23.7016C13.4161 23.8839 13.377 24.0271 13.325 24.1313C13.2208 24.2354 13.1427 24.3005 13.0906 24.3266C13.0385 24.3526 12.9343 24.3656 12.7781 24.3656H12.8562ZM16.9968 28.5063C16.8406 28.5063 16.7364 28.4802 16.6843 28.4281C16.6322 28.376 16.5541 28.324 16.45 28.2719L15.9031 27.725C15.7468 27.5688 15.6817 27.3995 15.7078 27.2172C15.7338 27.0349 15.7729 26.8917 15.825 26.7875C16.0333 26.6313 16.2156 26.5531 16.3718 26.5531C16.5281 26.5531 16.6843 26.6313 16.8406 26.7875L17.3875 27.3344C17.5437 27.4906 17.6088 27.6599 17.5828 27.8422C17.5567 28.0245 17.5177 28.1677 17.4656 28.2719C17.3093 28.324 17.2052 28.376 17.1531 28.4281C17.101 28.4802 17.0229 28.5063 16.9187 28.5063H16.9968ZM12.2312 28.5063C12.127 28.5063 12.0489 28.4802 11.9968 28.4281C11.9447 28.376 11.8406 28.324 11.6843 28.2719C11.6322 28.1677 11.5932 28.0245 11.5671 27.8422C11.5411 27.6599 11.6062 27.4906 11.7625 27.3344L12.3093 26.7875C12.4656 26.6313 12.6218 26.5531 12.7781 26.5531C12.9343 26.5531 13.1166 26.6313 13.325 26.7875C13.377 26.8917 13.4161 27.0349 13.4421 27.2172C13.4682 27.3995 13.4031 27.5688 13.2468 27.725L12.7 28.2719C12.5958 28.324 12.5177 28.376 12.4656 28.4281C12.4135 28.4802 12.3093 28.5063 12.1531 28.5063H12.2312ZM16.3718 24.3656C16.2677 24.3656 16.1765 24.3526 16.0984 24.3266C16.0203 24.3005 15.9291 24.2354 15.825 24.1313C15.7729 24.0271 15.7338 23.8839 15.7078 23.7016C15.6817 23.5193 15.7468 23.35 15.9031 23.1938L16.45 22.6469C16.6062 22.4906 16.7625 22.4125 16.9187 22.4125C17.075 22.4125 17.2572 22.4906 17.4656 22.6469C17.5177 22.751 17.5567 22.8943 17.5828 23.0766C17.6088 23.2589 17.5437 23.4281 17.3875 23.5844L16.8406 24.1313C16.7364 24.2354 16.6583 24.3005 16.6062 24.3266C16.5541 24.3526 16.45 24.3656 16.2937 24.3656H16.3718ZM14.6531 28.6625C14.1322 28.6625 13.6895 28.5714 13.325 28.3891C12.9604 28.2068 12.6218 27.9854 12.3093 27.725C12.0489 27.4125 11.8276 27.0609 11.6453 26.6703C11.463 26.2797 11.3979 25.876 11.45 25.4594C11.3979 25.0427 11.463 24.6391 11.6453 24.2484C11.8276 23.8578 12.0489 23.5063 12.3093 23.1938C12.6218 22.9333 12.9604 22.725 13.325 22.5688C13.6895 22.4125 14.1322 22.3344 14.6531 22.3344C15.0177 22.3344 15.4083 22.4125 15.825 22.5688C16.2416 22.725 16.5541 22.9333 16.7625 23.1938C17.127 23.5063 17.3744 23.8578 17.5046 24.2484C17.6348 24.6391 17.726 25.0427 17.7781 25.4594C17.726 25.876 17.6348 26.2797 17.5046 26.6703C17.3744 27.0609 17.127 27.4125 16.7625 27.725C16.5541 27.9854 16.2416 28.2068 15.825 28.3891C15.4083 28.5714 15.0177 28.6625 14.6531 28.6625ZM14.575 23.6625C14.3666 23.6625 14.1322 23.7016 13.8718 23.7797C13.6114 23.8578 13.4291 23.975 13.325 24.1313C13.1166 24.3396 12.9734 24.5479 12.8953 24.7563C12.8171 24.9646 12.752 25.199 12.7 25.4594C12.752 25.7198 12.8171 25.9542 12.8953 26.1625C12.9734 26.3708 13.1166 26.5792 13.325 26.7875C13.4291 26.9438 13.6114 27.074 13.8718 27.1781C14.1322 27.2823 14.3666 27.3344 14.575 27.3344C14.8354 27.3344 15.0697 27.2823 15.2781 27.1781C15.4864 27.074 15.6947 26.9438 15.9031 26.7875C16.0072 26.5792 16.1244 26.3708 16.2546 26.1625C16.3848 25.9542 16.4239 25.7198 16.3718 25.4594C16.4239 25.199 16.3848 24.9646 16.2546 24.7563C16.1244 24.5479 16.0072 24.3396 15.9031 24.1313C15.6947 23.975 15.4864 23.8578 15.2781 23.7797C15.0697 23.7016 14.8354 23.6625 14.575 23.6625Z" fill="#0E90E4"/>
</svg>
