<svg width="42" height="41" viewBox="0 0 42 41" fill="none" xmlns="http://www.w3.org/2000/svg">
<g clip-path="url(#clip0_1_29)">
<path d="M20.884 35.8031C20.4674 35.8031 20.0507 35.712 19.634 35.5297C19.2174 35.3474 18.9049 35.126 18.6965 34.8656C18.3319 34.5531 18.0846 34.2016 17.9543 33.8109C17.8241 33.4203 17.733 33.0167 17.6809 32.6C17.733 32.1833 17.8241 31.7797 17.9543 31.3891C18.0846 30.9984 18.3319 30.6469 18.6965 30.3344C18.9049 30.074 19.2174 29.8526 19.634 29.6703C20.0507 29.488 20.4674 29.3969 20.884 29.3969C21.3528 29.3969 21.7694 29.488 22.134 29.6703C22.4986 29.8526 22.8372 30.074 23.1497 30.3344C23.4101 30.6469 23.6314 30.9984 23.8137 31.3891C23.996 31.7797 24.0611 32.1833 24.009 32.6C24.0611 33.0167 23.996 33.4203 23.8137 33.8109C23.6314 34.2016 23.4101 34.5531 23.1497 34.8656C22.8372 35.126 22.4986 35.3474 22.134 35.5297C21.7694 35.712 21.3528 35.8031 20.884 35.8031ZM20.9622 30.8031C20.6497 30.8031 20.3892 30.8422 20.1809 30.9203C19.9726 30.9984 19.7642 31.1156 19.5559 31.2719C19.4517 31.4802 19.3346 31.6885 19.2043 31.8969C19.0741 32.1052 19.0351 32.3396 19.0872 32.6C19.0351 32.8604 19.0741 33.0948 19.2043 33.3031C19.3346 33.5115 19.4517 33.7198 19.5559 33.9281C19.7642 34.0844 19.9726 34.2016 20.1809 34.2797C20.3892 34.3578 20.6497 34.3969 20.9622 34.3969C21.1184 34.3969 21.3267 34.3578 21.5872 34.2797C21.8476 34.2016 22.0299 34.0844 22.134 33.9281C22.3424 33.7198 22.4856 33.5115 22.5637 33.3031C22.6418 33.0948 22.7069 32.8604 22.759 32.6C22.7069 32.3396 22.6418 32.1052 22.5637 31.8969C22.4856 31.6885 22.3424 31.4802 22.134 31.2719C22.0299 31.1156 21.8476 30.9984 21.5872 30.9203C21.3267 30.8422 21.1184 30.8031 20.9622 30.8031ZM40.5715 12.0531C40.5195 12.0531 40.4543 12.0401 40.3762 12.0141C40.2981 11.988 40.259 11.949 40.259 11.8969C38.7486 10.9073 37.2382 10.0349 35.7278 9.27969C34.2174 8.52448 32.6288 7.88647 30.9622 7.36563C29.3997 6.8448 27.759 6.45417 26.0403 6.19376C24.3215 5.93334 22.6288 5.80313 20.9622 5.80313C19.1392 5.80313 17.3944 5.93334 15.7278 6.19376C14.0611 6.45417 12.3945 6.8448 10.7278 7.36563C9.16528 7.88647 7.60278 8.52448 6.04028 9.27969C4.47778 10.0349 2.99341 10.9073 1.58716 11.8969C1.43091 12.001 1.27466 12.0401 1.11841 12.0141C0.962158 11.988 0.805908 11.8969 0.649658 11.7406C0.597575 11.5844 0.571533 11.4151 0.571533 11.2328C0.571533 11.0505 0.6757 10.9073 0.884033 10.8031C2.29028 9.76147 3.8007 8.85001 5.41528 8.06876C7.02987 7.28751 8.67049 6.61042 10.3372 6.03751C12.0559 5.51667 13.7877 5.11303 15.5325 4.82657C17.2773 4.54011 19.0872 4.39688 20.9622 4.39688C22.6809 4.39688 24.4387 4.54011 26.2356 4.82657C28.0325 5.11303 29.7382 5.51667 31.3528 6.03751C33.1236 6.61042 34.7903 7.28751 36.3528 8.06876C37.9153 8.85001 39.4778 9.76147 41.0403 10.8031C41.0924 10.9073 41.1575 11.0505 41.2356 11.2328C41.3137 11.4151 41.2747 11.5844 41.1184 11.7406C41.0663 11.8448 40.9882 11.9229 40.884 11.975C40.7799 12.0271 40.7017 12.0531 40.6497 12.0531H40.5715ZM6.89966 18.5375C6.84757 18.5375 6.76945 18.5115 6.66528 18.4594C6.56112 18.4073 6.48299 18.3292 6.43091 18.225C6.27466 18.1208 6.22257 17.9776 6.27466 17.7953C6.32674 17.613 6.40487 17.4698 6.50903 17.3656C7.65487 16.5844 8.77466 15.9073 9.86841 15.3344C10.9622 14.7615 12.1601 14.2927 13.4622 13.9281C14.608 13.5635 15.8189 13.2771 17.095 13.0688C18.371 12.8604 19.634 12.7563 20.884 12.7563C22.1861 12.7563 23.4491 12.8604 24.6731 13.0688C25.8971 13.2771 27.1601 13.5635 28.4622 13.9281C29.608 14.2927 30.7538 14.7615 31.8997 15.3344C33.0455 15.9073 34.1392 16.5844 35.1809 17.3656C35.3892 17.4698 35.4934 17.613 35.4934 17.7953C35.4934 17.9776 35.4674 18.1208 35.4153 18.225C35.259 18.3813 35.1028 18.4724 34.9465 18.4984C34.7903 18.5245 34.608 18.4854 34.3997 18.3813C33.4622 17.7042 32.4335 17.0922 31.3137 16.5453C30.1939 15.9984 29.0872 15.5427 27.9934 15.1781C26.8476 14.8135 25.6887 14.5401 24.5168 14.3578C23.345 14.1755 22.134 14.0844 20.884 14.0844C19.6861 14.0844 18.4882 14.1755 17.2903 14.3578C16.0924 14.5401 14.9465 14.8135 13.8528 15.1781C12.6549 15.5427 11.5221 15.9984 10.4543 16.5453C9.38664 17.0922 8.33195 17.7042 7.29028 18.3813C7.29028 18.4333 7.25122 18.4724 7.1731 18.4984C7.09497 18.5245 7.02987 18.5375 6.97778 18.5375H6.89966ZM12.6809 25.0219C12.6288 25.0219 12.5377 24.9958 12.4075 24.9438C12.2773 24.8917 12.2122 24.8396 12.2122 24.7875C12.0559 24.6313 12.0038 24.462 12.0559 24.2797C12.108 24.0974 12.1861 23.9542 12.2903 23.85C12.9674 23.3813 13.6314 22.9776 14.2825 22.6391C14.9335 22.3005 15.6497 22.0271 16.4309 21.8188C17.108 21.5583 17.8372 21.376 18.6184 21.2719C19.3997 21.1677 20.1549 21.1156 20.884 21.1156C21.6653 21.1156 22.4205 21.1677 23.1497 21.2719C23.8788 21.376 24.634 21.5583 25.4153 21.8188C26.0924 22.0271 26.7825 22.3005 27.4856 22.6391C28.1887 22.9776 28.8267 23.3813 29.3997 23.85C29.608 23.9542 29.7122 24.0974 29.7122 24.2797C29.7122 24.462 29.6861 24.6313 29.634 24.7875C29.4778 24.8917 29.3215 24.9698 29.1653 25.0219C29.009 25.074 28.8267 25.0479 28.6184 24.9438C28.0976 24.5271 27.5116 24.1625 26.8606 23.85C26.2096 23.5375 25.5976 23.2771 25.0247 23.0688C24.2955 22.8604 23.6054 22.7042 22.9543 22.6C22.3033 22.4958 21.6132 22.4438 20.884 22.4438C20.2069 22.4438 19.5168 22.4958 18.8137 22.6C18.1106 22.7042 17.4465 22.8604 16.8215 23.0688C16.1445 23.2771 15.5064 23.5375 14.9075 23.85C14.3085 24.1625 13.6965 24.5271 13.0715 24.9438C13.0715 24.9438 13.0195 24.9568 12.9153 24.9828C12.8111 25.0089 12.759 25.0219 12.759 25.0219H12.6809Z" fill="#0E90E4"/>
</g>
<defs>
<clipPath id="clip0_1_29">
<rect width="40.71" height="40" fill="white" transform="matrix(1 0 0 -1 0.48999 40.1)"/>
</clipPath>
</defs>
</svg>
