<svg width="41" height="41" viewBox="0 0 41 41" fill="none" xmlns="http://www.w3.org/2000/svg">
<path d="M19.3406 27.6L12.4656 20.725L13.4031 19.7875L20.2781 26.6625L19.3406 27.6ZM32.075 16.0375C31.9708 16.0375 31.8796 16.0245 31.8015 15.9984C31.7234 15.9724 31.6322 15.9333 31.5281 15.8812L21.45 5.72498L12.4656 14.7094C12.3614 14.8135 12.2182 14.8656 12.0359 14.8656C11.8536 14.8656 11.6843 14.8135 11.5281 14.7094C11.4239 14.5531 11.3718 14.3838 11.3718 14.2015C11.3718 14.0192 11.4239 13.876 11.5281 13.7719L20.9812 4.31873C21.0854 4.16248 21.2286 4.08435 21.4109 4.08435C21.5932 4.08435 21.7625 4.16248 21.9187 4.31873L32.5437 14.9437C32.6479 15.0479 32.7 15.1911 32.7 15.3734C32.7 15.5557 32.6479 15.725 32.5437 15.8812C32.4395 15.9333 32.3484 15.9724 32.2703 15.9984C32.1921 16.0245 32.127 16.0375 32.075 16.0375ZM4.96558 36.1156C4.86141 36.1156 4.77026 36.0896 4.69214 36.0375C4.61401 35.9854 4.54891 35.9333 4.49683 35.8812C4.34058 35.7771 4.26245 35.6338 4.26245 35.4515C4.26245 35.2692 4.34058 35.1 4.49683 34.9437L8.01245 31.4281C8.11662 31.2719 8.25985 31.1937 8.44214 31.1937C8.62443 31.1937 8.7937 31.2719 8.94995 31.4281C9.05412 31.5323 9.1062 31.6755 9.1062 31.8578C9.1062 32.0401 9.05412 32.2094 8.94995 32.3656L5.43433 35.8812C5.33016 35.9333 5.23901 35.9854 5.16089 36.0375C5.08276 36.0896 5.01766 36.1156 4.96558 36.1156ZM10.825 34.9437C10.7208 34.9437 10.6296 34.9177 10.5515 34.8656C10.4734 34.8135 10.4083 34.7614 10.3562 34.7094L5.6687 30.0219C5.51245 29.8656 5.43433 29.6963 5.43433 29.514C5.43433 29.3317 5.51245 29.1885 5.6687 29.0844L10.0437 24.7094C10.1479 24.5531 10.2911 24.475 10.4734 24.475C10.6557 24.475 10.825 24.5531 10.9812 24.7094C11.0854 24.8135 11.1375 24.9567 11.1375 25.139C11.1375 25.3213 11.0854 25.4906 10.9812 25.6469L7.07495 29.5531L10.825 33.3031L14.7312 29.3969C14.8354 29.2927 14.9786 29.2406 15.1609 29.2406C15.3432 29.2406 15.5125 29.2927 15.6687 29.3969C15.7729 29.5531 15.825 29.7224 15.825 29.9047C15.825 30.087 15.7729 30.2302 15.6687 30.3344L11.2937 34.7094C11.2416 34.7614 11.1765 34.8135 11.0984 34.8656C11.0203 34.9177 10.9291 34.9437 10.825 34.9437ZM16.6843 31.35C16.6322 31.35 16.5671 31.337 16.489 31.3109C16.4109 31.2849 16.3197 31.2458 16.2156 31.1937L9.18433 24.0844C9.02808 23.9802 8.94995 23.837 8.94995 23.6547C8.94995 23.4724 9.02808 23.3031 9.18433 23.1469L27.4656 4.8656C27.5697 4.76143 27.7 4.67029 27.8562 4.59216C28.0125 4.51404 28.1687 4.47498 28.325 4.47498C28.5333 4.47498 28.7416 4.52706 28.95 4.63123C29.1583 4.73539 29.3666 4.83956 29.575 4.94373C29.7312 5.09998 29.9005 5.25623 30.0828 5.41248C30.2651 5.56873 30.4343 5.75102 30.5906 5.95935L35.5906 10.9594C35.7468 11.1156 35.877 11.2588 35.9812 11.389C36.0854 11.5192 36.1375 11.6625 36.1375 11.8187C36.1375 12.0271 36.0854 12.1963 35.9812 12.3265C35.877 12.4567 35.7468 12.6 35.5906 12.7562L31.9187 16.4281L17.1531 31.1937C17.101 31.2458 17.0359 31.2849 16.9578 31.3109C16.8796 31.337 16.7885 31.35 16.6843 31.35ZM10.5906 23.6156L16.6843 29.7875L34.6531 11.8187L29.6531 6.81873C29.4968 6.71456 29.2755 6.53227 28.989 6.27185C28.7026 6.01143 28.4812 5.88123 28.325 5.88123L10.5906 23.6156Z" fill="#0E90E4"/>
</svg>
