<svg width="41" height="41" viewBox="0 0 41 41" fill="none" xmlns="http://www.w3.org/2000/svg">
<path d="M20.2 39.0844C17.5958 39.0844 15.1348 38.5896 12.8171 37.6C10.4994 36.6104 8.4812 35.2562 6.76245 33.5375C5.0437 31.8187 3.68953 29.8005 2.69995 27.4828C1.71037 25.1651 1.21558 22.7041 1.21558 20.1C1.21558 17.6 1.68433 15.2172 2.62183 12.9515C3.55933 10.6859 4.86141 8.69373 6.52808 6.97498C8.14266 5.25623 10.0567 3.87602 12.2703 2.83435C14.4838 1.79268 16.8406 1.21977 19.3406 1.1156C19.3927 1.1156 19.4708 1.12862 19.575 1.15466C19.6791 1.18071 19.7572 1.21977 19.8093 1.27185C19.8614 1.37602 19.9005 1.46716 19.9265 1.54529C19.9526 1.62341 19.9656 1.71456 19.9656 1.81873V18.4594L32.3093 6.27185C32.4135 6.16768 32.5567 6.1156 32.739 6.1156C32.9213 6.1156 33.0906 6.16768 33.2468 6.27185C34.1843 7.15727 35.0307 8.13383 35.7859 9.20154C36.5411 10.2692 37.1531 11.4021 37.6218 12.6C38.1427 13.7458 38.5333 14.9567 38.7937 16.2328C39.0541 17.5088 39.1843 18.7979 39.1843 20.1C39.1843 22.7041 38.6895 25.1651 37.7 27.4828C36.7104 29.8005 35.3562 31.8187 33.6375 33.5375C31.9187 35.2562 29.9135 36.6104 27.6218 37.6C25.3302 38.5896 22.8562 39.0844 20.2 39.0844ZM18.6375 2.52185C16.3979 2.6781 14.3015 3.26404 12.3484 4.27966C10.3953 5.29529 8.68953 6.58435 7.2312 8.14685C5.77287 9.76143 4.62703 11.5844 3.7937 13.6156C2.96037 15.6469 2.5437 17.8083 2.5437 20.1C2.5437 22.4958 2.99943 24.7745 3.91089 26.9359C4.82235 29.0974 6.08537 30.9854 7.69995 32.6C9.31453 34.1625 11.2026 35.4125 13.364 36.35C15.5255 37.2875 17.8041 37.7562 20.2 37.7562C22.6479 37.7562 24.9395 37.2875 27.075 36.35C29.2104 35.4125 31.0854 34.1625 32.7 32.6C34.3145 30.9854 35.5776 29.0974 36.489 26.9359C37.4005 24.7745 37.8562 22.4958 37.8562 20.1C37.8562 18.9021 37.752 17.7432 37.5437 16.6234C37.3354 15.5036 36.9968 14.4229 36.5281 13.3812C36.1114 12.3396 35.5906 11.337 34.9656 10.3734C34.3406 9.40987 33.6114 8.51143 32.7781 7.6781L19.8093 20.5687C19.7052 20.6729 19.588 20.738 19.4578 20.764C19.3276 20.7901 19.2104 20.7771 19.1062 20.725C18.95 20.6729 18.8328 20.5817 18.7546 20.4515C18.6765 20.3213 18.6375 20.2041 18.6375 20.1V2.52185ZM21.9968 13.3812C21.9447 13.3812 21.9057 13.3812 21.8796 13.3812C21.8536 13.3812 21.8145 13.3552 21.7625 13.3031C21.6062 13.251 21.489 13.1729 21.4109 13.0687C21.3328 12.9646 21.2937 12.8344 21.2937 12.6781V1.89685C21.2937 1.79268 21.3197 1.70154 21.3718 1.62341C21.4239 1.54529 21.476 1.48018 21.5281 1.4281C21.6322 1.32393 21.7234 1.25883 21.8015 1.23279C21.8796 1.20675 21.9708 1.21977 22.075 1.27185C22.8041 1.37602 23.5333 1.51925 24.2625 1.70154C24.9916 1.88383 25.6947 2.10518 26.3718 2.3656C27.101 2.57393 27.7911 2.84737 28.4421 3.18591C29.0932 3.52446 29.7052 3.87602 30.2781 4.2406C30.3302 4.29268 30.3822 4.37081 30.4343 4.47498C30.4864 4.57914 30.5125 4.68331 30.5125 4.78748C30.5645 4.89164 30.5645 4.98279 30.5125 5.06091C30.4604 5.13904 30.4083 5.23018 30.3562 5.33435L22.4656 13.1469C22.4135 13.251 22.3484 13.3161 22.2703 13.3422C22.1921 13.3682 22.101 13.3812 21.9968 13.3812ZM22.7 2.6781V11.1156L28.7937 4.94373C28.377 4.68331 27.9213 4.43591 27.4265 4.20154C26.9317 3.96716 26.4239 3.74581 25.9031 3.53748C25.3822 3.38123 24.8484 3.22498 24.3015 3.06873C23.7546 2.91248 23.2208 2.78227 22.7 2.6781Z" fill="#0E90E4"/>
</svg>
