<svg width="41" height="41" viewBox="0 0 41 41" fill="none" xmlns="http://www.w3.org/2000/svg">
<g clip-path="url(#clip0_1_59)">
<path d="M23.7156 40.1H10.3562C9.26245 40.1 8.25985 39.8786 7.34839 39.4359C6.43693 38.9932 5.61662 38.3812 4.88745 37.6C4.21037 36.8708 3.67651 35.9854 3.28589 34.9437C2.89526 33.9021 2.69995 32.7823 2.69995 31.5844V19.3969C2.69995 19.2406 2.76506 19.0974 2.89526 18.9672C3.02547 18.837 3.19474 18.7719 3.40308 18.7719H30.7468C30.9031 18.7719 31.0463 18.837 31.1765 18.9672C31.3067 19.0974 31.3718 19.2406 31.3718 19.3969C31.3718 19.6052 31.3067 19.7745 31.1765 19.9047C31.0463 20.0349 30.9031 20.1 30.7468 20.1H4.02808V31.5844C4.02808 32.4698 4.17131 33.3422 4.45776 34.2015C4.74422 35.0609 5.17391 35.8291 5.74683 36.5062C6.26766 37.1833 6.9187 37.7302 7.69995 38.1469C8.4812 38.5635 9.36662 38.7719 10.3562 38.7719H23.7156C24.6531 38.7719 25.5385 38.5765 26.3718 38.1859C27.2052 37.7953 27.9604 37.2614 28.6375 36.5844C29.2625 35.9594 29.7703 35.2172 30.1609 34.3578C30.5515 33.4984 30.7468 32.5739 30.7468 31.5844V26.7406C30.7468 26.5844 30.8119 26.4411 30.9421 26.3109C31.0723 26.1807 31.2156 26.1156 31.3718 26.1156C31.5802 26.1156 31.7494 26.1807 31.8796 26.3109C32.0098 26.4411 32.075 26.5844 32.075 26.7406V31.5844C32.075 32.7302 31.8406 33.8109 31.3718 34.8265C30.9031 35.8422 30.2781 36.7406 29.4968 37.5219C28.7677 38.3031 27.8953 38.9281 26.8796 39.3969C25.864 39.8656 24.8093 40.1 23.7156 40.1ZM30.0437 19.3969C29.8354 19.3969 29.6661 19.3317 29.5359 19.2015C29.4057 19.0713 29.3406 18.9281 29.3406 18.7719V11.5844C29.3406 10.0219 29.0151 8.60258 28.364 7.32654C27.713 6.0505 26.8406 4.99581 25.7468 4.16248C24.6531 3.27706 23.4161 2.59998 22.0359 2.13123C20.6557 1.66248 19.2625 1.4281 17.8562 1.4281H16.2156C14.6531 1.4281 13.2078 1.68852 11.8796 2.20935C10.5515 2.73018 9.39266 3.43331 8.40308 4.31873C7.46558 5.20414 6.72339 6.27185 6.17651 7.52185C5.62964 8.77185 5.3562 10.126 5.3562 11.5844V18.7719C5.3562 18.9281 5.2911 19.0713 5.16089 19.2015C5.03068 19.3317 4.88745 19.3969 4.7312 19.3969C4.52287 19.3969 4.3536 19.3317 4.22339 19.2015C4.09318 19.0713 4.02808 18.9281 4.02808 18.7719V11.5844C4.02808 9.91768 4.32756 8.38123 4.92651 6.97498C5.52547 5.56873 6.37183 4.37081 7.46558 3.38123C8.55933 2.33956 9.84839 1.53227 11.3328 0.959351C12.8171 0.386433 14.4447 0.0999756 16.2156 0.0999756H17.8562C19.6791 0.0999756 21.3718 0.399456 22.9343 0.998413C24.4968 1.59737 25.851 2.41768 26.9968 3.45935C28.1427 4.50102 29.0541 5.71196 29.7312 7.09216C30.4083 8.47237 30.7468 9.96977 30.7468 11.5844V18.7719C30.7468 18.9281 30.6817 19.0713 30.5515 19.2015C30.4213 19.3317 30.252 19.3969 30.0437 19.3969ZM16.9968 33.7719C16.9447 33.7719 16.8796 33.7588 16.8015 33.7328C16.7234 33.7067 16.6322 33.6677 16.5281 33.6156L11.6843 28.7719C11.5281 28.6156 11.45 28.4463 11.45 28.264C11.45 28.0817 11.5281 27.9125 11.6843 27.7562C11.7885 27.6521 11.9317 27.6 12.114 27.6C12.2963 27.6 12.4656 27.6521 12.6218 27.7562L17.075 32.2875L36.6062 17.6C36.7625 17.4958 36.9317 17.4567 37.114 17.4828C37.2963 17.5088 37.4395 17.6 37.5437 17.7562C37.6479 17.9125 37.6869 18.0817 37.6609 18.264C37.6348 18.4463 37.5437 18.5896 37.3875 18.6937L17.3875 33.6937C17.3354 33.7458 17.2833 33.7719 17.2312 33.7719C17.1791 33.7719 17.101 33.7719 16.9968 33.7719Z" fill="#0E90E4"/>
</g>
<defs>
<clipPath id="clip0_1_59">
<rect width="40" height="40" fill="white" transform="matrix(1 0 0 -1 0.199951 40.1)"/>
</clipPath>
</defs>
</svg>
