<svg width="0" height="0" class="hidden">
  <symbol id="Address" xmlns="http://www.w3.org/2000/svg"  viewBox="0 0 48 48">
    <path fill="none" stroke="#30a9d8" stroke-linecap="round" stroke-linejoin="round"
      d="M9.197 20.568c.593.254 1.175.505 1.794.719m1.438 18.436c-2.12-2.574-1.764-6.47-4.367-8.741c-1.158-1.309-.985-3.192-.67-4.782c.176-2.624-2.162-4.708-2.254-7.368M18.753 5.453c-.188 3.415-4.657 1.34-5.336 4.379c.848.888 1.986.017 2.704-.368c3.632.13 1.89 3.442-.725 3.709c-1.747.925-3.922 1.865-4.853 3.785c-.609.501-.509 1.645-1.64 1.572c-.437-.62-.308-2.916-1.411-1.78c-2.449 1.686.45 4.222.514 6.477c4.206-.38 6.28 3.438 9.304 5.613c1.614 1.296 4.916 2.537 2.385 4.746c-1.332 2.739-5.22 4.982-3.665 8.275c-.016.15.194.121.123.292m26.321-11.988c-2.022-.15-2.434 3.125-2.024 4.584M25.316 11.934c.166-.04.343-.078.481-.184c.254-.153.214-.58.187-.85c-.12-.206-.22-.568-.459-.714m16.603 6.237c-.855.239-3.055-.95-2.164.418c.143.927.94 1.144 1.386 1.459c.333.669.556 2.361-.358 2.703c-.581.021-3.629-3.083-2.783-1.26c.164 1.183 1.057 2.126 1.778 2.87c.378 1.05 2.037.499 2.1 1.304c-.622 2.028-1.944 3.457-2.77 5.372c.146 2.151.07 4.31-1.206 6.14c-5.811 6.39-7.22-.456-5.196-5.882c.738-6.467-5.996-1.007-8.28-4.253c-2.06-2.172-.258-6.137 1.848-7.682c.78-.853 2.131-.889 3.19-.535c2.132.346 5.166.18 7.03-.909c-.124-.657-1.22-1.354-1.966-1.422c-.123-.689 1.623-.93.475-1.511c-1.303-.113-1.301 2.396-2.517 1.077c-.285-.869-2.182-.866-1.066.063c.05 1.006.137 1.672-.505.59c-1.705-.91-3.308 1.08-4.864 1.318c-1.502-1.74 2.24-5.357 3.862-5.914c1.054-.893-1.488-2.283-.88-.65c-.423 1.061-2.682.318-1.652-.72c.278-1.003 1.06-1.693 1.904-1.997c1.052.107 1.498.055 1.509-1.108m-9.96-.666c-.086.685.275 1.336.2 2.021c0 .608-1.516 1.695-.622 1.976c.933.315 1.62-.048 2.18-.787c1.017-.783 1.93-1.588 1.767-3.03c-.131-.047-.322-.083-.288-.168c-.97-.756-2.168-.426-3.237-.012M43.735 24c0 10.9-8.835 19.735-19.735 19.735S4.265 34.9 4.265 24S13.1 4.265 24 4.265S43.736 13.1 43.736 24Z" />
  </symbol>
  <symbol id="Calendar" xmlns="http://www.w3.org/2000/svg" viewBox="0 0 24 24">
    <path
      d="M19.5 4h-3V2.5a.5.5 0 0 0-1 0V4h-7V2.5a.5.5 0 0 0-1 0V4h-3A2.503 2.503 0 0 0 2 6.5v13A2.503 2.503 0 0 0 4.5 22h15a2.5 2.5 0 0 0 2.5-2.5v-13A2.5 2.5 0 0 0 19.5 4M21 19.5a1.5 1.5 0 0 1-1.5 1.5h-15A1.5 1.5 0 0 1 3 19.5V11h18zm0-9.5H3V6.5C3 5.672 3.67 5 4.5 5h3v1.5a.5.5 0 0 0 1 0V5h7v1.5a.5.5 0 0 0 1 0V5h3A1.5 1.5 0 0 1 21 6.5z" />
  </symbol>
  <symbol xmlns="http://www.w3.org/2000/svg" viewBox="0 0 72 72" id="Armenia">
    <path fill="#f1b31c" d="M5 17h62v38H5z"></path>
    <path fill="#1e50a0" d="M5 30h62v12H5z"></path>
    <path fill="#d22f27" d="M5 17h62v13H5z"></path>
    <path fill="none" stroke="#000" stroke-linecap="round" stroke-linejoin="round" stroke-width="2" d="M5 17h62v38H5z">
    </path>
  </symbol>
  <symbol xmlns="http://www.w3.org/2000/svg" viewBox="0 0 72 72" id="English">
    <path fill="#fff" d="M5 17h62v38H5z"></path>
    <path fill="#d22f27" d="M5 17h62v5H5zm0 9h62v4H5zm0 8h62v4H5z"></path>
    <path fill="#1e50a0" d="M5 17h32v21H5z"></path>
    <path fill="#d22f27" d="M5 42h62v4H5z"></path>
    <circle cx="9" cy="22" r="1.75" fill="#fff"></circle>
    <circle cx="17" cy="22" r="1.75" fill="#fff"></circle>
    <circle cx="25" cy="22" r="1.75" fill="#fff"></circle>
    <circle cx="33" cy="22" r="1.75" fill="#fff"></circle>
    <circle cx="29" cy="26" r="1.75" fill="#fff"></circle>
    <circle cx="21" cy="26" r="1.75" fill="#fff"></circle>
    <circle cx="13" cy="26" r="1.75" fill="#fff"></circle>
    <circle cx="9" cy="30" r="1.75" fill="#fff"></circle>
    <circle cx="17" cy="30" r="1.75" fill="#fff"></circle>
    <circle cx="25" cy="30" r="1.75" fill="#fff"></circle>
    <circle cx="33" cy="30" r="1.75" fill="#fff"></circle>
    <circle cx="29" cy="34" r="1.75" fill="#fff"></circle>
    <circle cx="21" cy="34" r="1.75" fill="#fff"></circle>
    <circle cx="13" cy="34" r="1.75" fill="#fff"></circle>
    <path fill="#d22f27" d="M5 50h62v5H5z"></path>
    <path fill="none" stroke="#000" stroke-linecap="round" stroke-linejoin="round" stroke-width="2" d="M5 17h62v38H5z">
    </path>
  </symbol>
  <symbol xmlns="http://www.w3.org/2000/svg" viewBox="0 0 24 24" id="Facebook">
    <path
      d="M13.397 20.997v-8.196h2.765l.411-3.209h-3.176V7.548c0-.926.258-1.56 1.587-1.56h1.684V3.127A22.336 22.336 0 0 0 14.201 3c-2.444 0-4.122 1.492-4.122 4.231v2.355H7.332v3.209h2.753v8.202h3.312z">
    </path>
  </symbol>
  <symbol xmlns="http://www.w3.org/2000/svg" viewBox="0 0 24 24" id="Instagram">
    <path
      d="M7.8 2h8.4C19.4 2 22 4.6 22 7.8v8.4a5.8 5.8 0 0 1-5.8 5.8H7.8C4.6 22 2 19.4 2 16.2V7.8A5.8 5.8 0 0 1 7.8 2m-.2 2A3.6 3.6 0 0 0 4 7.6v8.8C4 18.39 5.61 20 7.6 20h8.8a3.6 3.6 0 0 0 3.6-3.6V7.6C20 5.61 18.39 4 16.4 4zm9.65 1.5a1.25 1.25 0 0 1 1.25 1.25A1.25 1.25 0 0 1 17.25 8A1.25 1.25 0 0 1 16 6.75a1.25 1.25 0 0 1 1.25-1.25M12 7a5 5 0 0 1 5 5a5 5 0 0 1-5 5a5 5 0 0 1-5-5a5 5 0 0 1 5-5m0 2a3 3 0 0 0-3 3a3 3 0 0 0 3 3a3 3 0 0 0 3-3a3 3 0 0 0-3-3">
    </path>
  </symbol>
  <symbol xmlns="http://www.w3.org/2000/svg" viewBox="0 0 72 72" id="Russia">
    <path fill="#d22f27" d="M5 17h62v38H5z"></path>
    <path fill="#fff" d="M5 17h62v13H5z"></path>
    <path fill="#1e50a0" d="M5 30h62v12H5z"></path>
    <path fill="none" stroke="#000" stroke-linecap="round" stroke-linejoin="round" stroke-width="2" d="M5 17h62v38H5z">
    </path>
  </symbol>
  <symbol xmlns="http://www.w3.org/2000/svg" viewBox="0 0 24 24" id="Twitter">
    <path
      d="M22.46 6c-.77.35-1.6.58-2.46.69c.88-.53 1.56-1.37 1.88-2.38c-.83.5-1.75.85-2.72 1.05C18.37 4.5 17.26 4 16 4c-2.35 0-4.27 1.92-4.27 4.29c0 .34.04.67.11.98C8.28 9.09 5.11 7.38 3 4.79c-.37.63-.58 1.37-.58 2.15c0 1.49.75 2.81 1.91 3.56c-.71 0-1.37-.2-1.95-.5v.03c0 2.08 1.48 3.82 3.44 4.21a4.2 4.2 0 0 1-1.93.07a4.28 4.28 0 0 0 4 2.98a8.52 8.52 0 0 1-5.33 1.84q-.51 0-1.02-.06C3.44 20.29 5.7 21 8.12 21C16 21 20.33 14.46 20.33 8.79c0-.19 0-.37-.01-.56c.84-.6 1.56-1.36 2.14-2.23">
    </path>
  </symbol>
  <symbol fill="none" xmlns="http://www.w3.org/2000/svg" viewBox="0 0 41 41" id="AppStore">
    <g clip-path="url(#clip0_1_49)">
      <path
        d="M29.6531 18.3031C29.5489 18.3031 29.4708 18.2771 29.4187 18.225C29.3666 18.1729 29.2625 18.1208 29.1062 18.0688L13.5593 2.52188C13.4031 2.41771 13.325 2.31355 13.325 2.20938C13.325 2.10521 13.2989 2.00105 13.2468 1.89688C13.351 1.79271 13.4291 1.70157 13.4812 1.62344C13.5333 1.54532 13.6375 1.48021 13.7937 1.42813C14.3145 1.2198 14.8484 1.05053 15.3953 0.920319C15.9421 0.790112 16.45 0.672924 16.9187 0.568756C17.5437 0.464588 18.1036 0.386463 18.5984 0.334381C19.0932 0.282299 19.6531 0.256256 20.2781 0.256256C21.0593 0.256256 21.8927 0.308338 22.7781 0.412506C23.6635 0.516674 24.4968 0.672924 25.2781 0.881256C26.1635 1.08959 26.9838 1.35001 27.739 1.66251C28.4942 1.97501 29.2625 2.31355 30.0437 2.67813C30.0958 2.73021 30.1609 2.80834 30.239 2.91251C30.3171 3.01667 30.3302 3.14688 30.2781 3.30313L30.3562 17.6C30.3041 17.7563 30.252 17.8865 30.2 17.9906C30.1479 18.0948 30.0437 18.1729 29.8875 18.225C29.8875 18.225 29.8484 18.238 29.7703 18.2641C29.6921 18.2901 29.6531 18.3031 29.6531 18.3031ZM15.2 2.36563L29.0281 16.0375L28.95 3.69376C28.377 3.32917 27.726 3.01667 26.9968 2.75626C26.2677 2.49584 25.5645 2.28751 24.8875 2.13126C24.0541 1.97501 23.2729 1.8448 22.5437 1.74063C21.8145 1.63646 21.0333 1.58438 20.2 1.58438C19.8354 1.58438 19.4317 1.5974 18.989 1.62344C18.5463 1.64949 18.1427 1.71459 17.7781 1.81876C17.3093 1.87084 16.8796 1.93594 16.489 2.01407C16.0984 2.09219 15.6687 2.20938 15.2 2.36563ZM37.6218 28.3031H29.575C29.4708 28.3031 29.3406 28.238 29.1843 28.1078C29.0281 27.9776 28.976 27.8083 29.0281 27.6L28.95 3.22501C29.002 3.12084 29.0411 3.01667 29.0671 2.91251C29.0932 2.80834 29.1843 2.73021 29.3406 2.67813C29.3927 2.62605 29.4968 2.60001 29.6531 2.60001C29.8093 2.60001 29.9135 2.62605 29.9656 2.67813C31.5281 3.61563 32.9213 4.73542 34.1453 6.03751C35.3692 7.33959 36.45 8.74584 37.3875 10.2563C38.1687 11.7667 38.8197 13.3552 39.3406 15.0219C39.8614 16.6885 40.0958 18.3813 40.0437 20.1C40.0958 20.6729 40.0697 21.2719 39.9656 21.8969C39.8614 22.5219 39.7572 23.1469 39.6531 23.7719C39.4447 24.3969 39.2364 25.0479 39.0281 25.725C38.8197 26.4021 38.5333 27.1052 38.1687 27.8344C38.1687 27.9906 38.1036 28.1078 37.9734 28.1859C37.8432 28.2641 37.726 28.3031 37.6218 28.3031ZM30.2781 26.8969H37.2312C37.4395 26.2719 37.6479 25.6599 37.8562 25.0609C38.0645 24.462 38.2208 23.876 38.325 23.3031C38.4812 22.7302 38.5854 22.1833 38.6375 21.6625C38.6895 21.1417 38.7416 20.6208 38.7937 20.1C38.7416 18.5896 38.5203 17.0922 38.1296 15.6078C37.739 14.1234 37.1531 12.7302 36.3718 11.4281C35.6947 10.074 34.8354 8.81094 33.7937 7.63907C32.752 6.46719 31.6062 5.41251 30.3562 4.47501L30.2781 26.8969ZM29.6531 28.3031H10.9812C10.825 28.3031 10.6687 28.238 10.5125 28.1078C10.3562 27.9776 10.3041 27.8083 10.3562 27.6L10.2781 18.3813L2.15308 25.725C1.99683 25.7771 1.87964 25.8162 1.80151 25.8422C1.72339 25.8682 1.6062 25.8813 1.44995 25.8813C1.39787 25.8292 1.31974 25.7641 1.21558 25.6859C1.11141 25.6078 1.05933 25.5167 1.05933 25.4125C0.903076 24.9438 0.785889 24.488 0.707764 24.0453C0.629639 23.6026 0.538493 23.1469 0.434326 22.6781C0.434326 22.2615 0.395264 21.8318 0.317139 21.3891C0.239014 20.9464 0.225993 20.5167 0.278076 20.1C0.225993 18.0167 0.538493 15.9984 1.21558 14.0453C1.89266 12.0922 2.77808 10.3083 3.87183 8.69376C5.12183 7.02709 6.55412 5.56876 8.1687 4.31876C9.78328 3.06876 11.6062 2.10521 13.6375 1.42813C13.7416 1.37605 13.8588 1.36303 13.989 1.38907C14.1192 1.41511 14.2104 1.48021 14.2625 1.58438L30.1218 17.1313C30.1739 17.1833 30.226 17.2484 30.2781 17.3266C30.3302 17.4047 30.3302 17.4958 30.2781 17.6L30.3562 27.6C30.3041 27.8083 30.226 27.9776 30.1218 28.1078C30.0177 28.238 29.8354 28.3031 29.575 28.3031H29.6531ZM11.6843 26.8969H28.95L29.0281 17.9125L20.2781 9.31876L11.6843 17.1313L11.6062 26.8969H11.6843ZM13.7156 2.83438C11.8406 3.51146 10.1739 4.43594 8.71558 5.60782C7.25724 6.77969 5.9812 8.12084 4.88745 9.63126C3.89787 11.1417 3.09058 12.7823 2.46558 14.5531C1.84058 16.324 1.55412 18.1729 1.6062 20.1C1.55412 20.4125 1.55412 20.725 1.6062 21.0375C1.65828 21.35 1.68433 21.6625 1.68433 21.975C1.78849 22.3396 1.8536 22.6781 1.87964 22.9906C1.90568 23.3031 1.97078 23.6417 2.07495 24.0063L10.4343 16.4281C10.4864 16.376 10.5255 16.337 10.5515 16.3109C10.5776 16.2849 10.6427 16.2458 10.7468 16.1938L19.3406 8.38126L13.7156 2.83438ZM10.9812 37.6C10.9812 37.6 10.9421 37.6 10.864 37.6C10.7859 37.6 10.7468 37.574 10.7468 37.5219C9.44474 36.949 8.31193 36.2849 7.34839 35.5297C6.38485 34.7745 5.48641 33.876 4.65308 32.8344C3.87183 31.8448 3.1687 30.738 2.5437 29.5141C1.9187 28.2901 1.42391 26.9229 1.05933 25.4125C1.00724 25.2563 1.00724 25.126 1.05933 25.0219C1.11141 24.9177 1.16349 24.8135 1.21558 24.7094L10.5906 16.35C10.6427 16.2458 10.7468 16.1938 10.9031 16.1938C11.0593 16.1938 11.1635 16.2198 11.2156 16.2719C11.3718 16.324 11.476 16.4021 11.5281 16.5063C11.5802 16.6104 11.6322 16.7146 11.6843 16.8188L11.6062 36.8969C11.6583 37.0531 11.6453 37.1703 11.5671 37.2484C11.489 37.3266 11.4239 37.4177 11.3718 37.5219C11.2677 37.5219 11.2026 37.5349 11.1765 37.5609C11.1505 37.587 11.0854 37.6 10.9812 37.6ZM2.46558 25.4125C2.77808 26.6625 3.20776 27.8083 3.75464 28.85C4.30151 29.8917 4.86141 30.8552 5.43433 31.7406C6.11141 32.574 6.84058 33.3422 7.62183 34.0453C8.40308 34.7484 9.31453 35.3604 10.3562 35.8813L10.2781 18.3813L2.46558 25.4125ZM20.0437 39.9438C19.2625 39.9438 18.4421 39.8917 17.5828 39.7875C16.7234 39.6833 15.9291 39.5271 15.2 39.3188C14.3666 39.1104 13.5854 38.85 12.8562 38.5375C12.127 38.225 11.3718 37.8865 10.5906 37.5219C10.5385 37.4698 10.4734 37.3917 10.3953 37.2875C10.3171 37.1833 10.3041 37.0531 10.3562 36.8969L10.2781 27.6C10.3302 27.3917 10.4083 27.2224 10.5125 27.0922C10.6166 26.962 10.7989 26.8969 11.0593 26.8969H37.5437C37.7 26.8969 37.8171 26.9229 37.8953 26.975C37.9734 27.0271 38.0645 27.1052 38.1687 27.2094C38.2208 27.3135 38.2598 27.4177 38.2859 27.5219C38.3119 27.626 38.2729 27.7302 38.1687 27.8344C37.4395 29.7094 36.4369 31.3891 35.1609 32.8734C33.8848 34.3578 32.4916 35.6208 30.9812 36.6625C29.3666 37.7042 27.6479 38.5115 25.825 39.0844C24.002 39.6573 22.075 39.9438 20.0437 39.9438ZM11.6843 36.5063C12.2572 36.8708 12.8953 37.1833 13.5984 37.4438C14.3015 37.7042 14.9916 37.9125 15.6687 38.0688C16.45 38.225 17.1921 38.3552 17.8953 38.4594C18.5984 38.5635 19.3406 38.6156 20.1218 38.6156C21.7885 38.6156 23.4682 38.3682 25.1609 37.8734C26.8536 37.3787 28.377 36.6885 29.7312 35.8031C31.2416 34.9177 32.5567 33.837 33.6765 32.5609C34.7963 31.2849 35.7729 29.8656 36.6062 28.3031H11.6062L11.6843 36.5063Z"
        fill="#0E90E4"></path>
    </g>
    <defs>
      <clipPath id="clip0_1_49">
        <rect width="40" height="40" fill="white" transform="matrix(1 0 0 -1 0.199951 40.1)"></rect>
      </clipPath>
    </defs>
  </symbol>
  <symbol fill="none" xmlns="http://www.w3.org/2000/svg" viewBox="0 0 45 41" id="EasyToSue">
    <g clip-path="url(#clip0_1_64)">
      <path
        d="M5.20117 34.9437H0.904297C0.695964 34.9437 0.526693 34.8786 0.396484 34.7484C0.266276 34.6182 0.201172 34.4489 0.201172 34.2406V28.9281C0.201172 28.7198 0.266276 28.5505 0.396484 28.4203C0.526693 28.2901 0.695964 28.225 0.904297 28.225H5.20117C6.34701 28.225 7.37565 28.0427 8.28711 27.6781C9.19857 27.3135 10.071 26.7406 10.9043 25.9594C11.7376 25.1781 12.5449 24.1625 13.3262 22.9125C14.1074 21.6625 14.9668 20.1781 15.9043 18.4594C16.6855 17.001 17.5449 15.5166 18.4824 14.0062C19.4199 12.4958 20.5137 11.1156 21.7637 9.8656C22.9616 8.6156 24.3809 7.58695 26.0215 6.77966C27.6621 5.97237 29.6022 5.56873 31.8418 5.56873H32.2324V1.66248C32.2324 1.55831 32.2585 1.45414 32.3105 1.34998C32.3626 1.24581 32.4408 1.16768 32.5449 1.1156C32.6491 1.06352 32.7663 1.03748 32.8965 1.03748C33.0267 1.03748 33.1439 1.06352 33.248 1.1156L44.2637 7.83435C44.3678 7.88643 44.446 7.96456 44.498 8.06873C44.5501 8.17289 44.5762 8.3031 44.5762 8.45935C44.5762 8.56352 44.5501 8.66768 44.498 8.77185C44.446 8.87602 44.3678 8.95414 44.2637 9.00623L33.248 15.725C33.1439 15.7771 33.0267 15.8031 32.8965 15.8031C32.7663 15.8031 32.6491 15.7771 32.5449 15.725C32.4408 15.6729 32.3626 15.5948 32.3105 15.4906C32.2585 15.3864 32.2324 15.2823 32.2324 15.1781V12.2875H31.6855C30.5397 12.2875 29.5241 12.4698 28.6387 12.8344C27.7533 13.1989 26.9199 13.7979 26.1387 14.6312C25.3574 15.4125 24.5892 16.4021 23.834 17.6C23.0788 18.7979 22.2585 20.2041 21.373 21.8187C20.5397 23.3812 19.6543 24.9307 18.7168 26.4672C17.7793 28.0036 16.6855 29.3969 15.4355 30.6469C14.1855 31.8969 12.7272 32.9255 11.0605 33.7328C9.39388 34.5401 7.44076 34.9437 5.20117 34.9437ZM1.5293 33.6156H5.20117C7.28451 33.6156 9.08138 33.238 10.5918 32.4828C12.1022 31.7276 13.4564 30.751 14.6543 29.5531C15.8001 28.3552 16.8158 27.0271 17.7012 25.5687C18.5866 24.1104 19.4199 22.6521 20.2012 21.1937C21.0866 19.5791 21.9199 18.1338 22.7012 16.8578C23.4824 15.5817 24.3158 14.5271 25.2012 13.6937C26.0866 12.8083 27.0501 12.1312 28.0918 11.6625C29.1335 11.1937 30.3314 10.9594 31.6855 10.9594H32.8574C33.0658 10.9594 33.235 11.0245 33.3652 11.1547C33.4954 11.2849 33.5605 11.4281 33.5605 11.5844V13.9281L42.623 8.45935L33.5605 2.91248V6.27185C33.5605 6.4281 33.4954 6.57133 33.3652 6.70154C33.235 6.83175 33.0658 6.89685 32.8574 6.89685H31.8418C29.8105 6.89685 28.0527 7.26143 26.5684 7.9906C25.084 8.71977 23.7689 9.68331 22.623 10.8812C21.4772 12.0271 20.4616 13.3291 19.5762 14.7875C18.6908 16.2458 17.8574 17.6781 17.0762 19.0844C16.2428 20.6989 15.4225 22.1442 14.6152 23.4203C13.8079 24.6963 12.9355 25.8031 11.998 26.7406C11.1126 27.626 10.11 28.3161 8.99023 28.8109C7.87044 29.3057 6.60742 29.5531 5.20117 29.5531H1.5293V33.6156ZM32.8574 39.1625C32.8053 39.1625 32.7533 39.1625 32.7012 39.1625C32.6491 39.1625 32.597 39.1364 32.5449 39.0844C32.4408 39.0323 32.3626 38.9541 32.3105 38.85C32.2585 38.7458 32.2324 38.6416 32.2324 38.5375V34.9437H31.8418C30.071 34.9437 28.4954 34.6703 27.1152 34.1234C25.735 33.5765 24.498 32.8604 23.4043 31.975C22.3105 31.1416 21.36 30.1911 20.5527 29.1234C19.7454 28.0557 19.0033 27.001 18.3262 25.9594C18.222 25.8031 18.196 25.6338 18.248 25.4515C18.3001 25.2692 18.4043 25.126 18.5605 25.0219C18.7168 24.9177 18.8861 24.8916 19.0684 24.9437C19.2507 24.9958 19.3939 25.1 19.498 25.2562C20.123 26.2979 20.8262 27.3135 21.6074 28.3031C22.3887 29.2927 23.2741 30.1781 24.2637 30.9594C25.2533 31.7406 26.373 32.3786 27.623 32.8734C28.873 33.3682 30.2793 33.6156 31.8418 33.6156H32.8574C33.0658 33.6156 33.235 33.6807 33.3652 33.8109C33.4954 33.9411 33.5605 34.0844 33.5605 34.2406V37.2875L42.623 31.8187L33.5605 26.2719V29.2406C33.5605 29.3448 33.5345 29.4359 33.4824 29.514C33.4303 29.5922 33.3783 29.6573 33.3262 29.7094C33.2741 29.8135 33.209 29.8786 33.1309 29.9047C33.0527 29.9307 32.9616 29.9437 32.8574 29.9437H31.7637C30.4616 29.9437 29.3158 29.7094 28.3262 29.2406C27.3366 28.7719 26.4251 28.1469 25.5918 27.3656C24.8105 26.5323 24.0553 25.5817 23.3262 24.514C22.597 23.4463 21.8939 22.2614 21.2168 20.9594C21.1126 20.8031 21.0866 20.6338 21.1387 20.4515C21.1908 20.2692 21.2949 20.1521 21.4512 20.1C21.6074 19.9958 21.7767 19.9698 21.959 20.0219C22.1413 20.0739 22.2845 20.1781 22.3887 20.3344C23.1178 21.6885 23.834 22.8864 24.5371 23.9281C25.2402 24.9698 25.9564 25.8291 26.6855 26.5062C27.4147 27.1833 28.196 27.7041 29.0293 28.0687C29.8626 28.4333 30.7741 28.6156 31.7637 28.6156H32.2324V25.0219C32.2324 24.9177 32.2585 24.8135 32.3105 24.7094C32.3626 24.6052 32.4408 24.5271 32.5449 24.475C32.6491 24.4229 32.7663 24.3969 32.8965 24.3969C33.0267 24.3969 33.1439 24.4229 33.248 24.475L44.2637 31.1937C44.3678 31.2458 44.446 31.3239 44.498 31.4281C44.5501 31.5323 44.5762 31.6625 44.5762 31.8187C44.5762 31.9229 44.5501 32.0271 44.498 32.1312C44.446 32.2354 44.3678 32.3135 44.2637 32.3656L33.248 39.0844C33.196 39.0844 33.1309 39.0974 33.0527 39.1234C32.9746 39.1495 32.9095 39.1625 32.8574 39.1625ZM15.6699 20.9594C15.5658 20.9594 15.4616 20.9333 15.3574 20.8812C15.2533 20.8291 15.1751 20.751 15.123 20.6469C14.3418 19.1885 13.5866 17.9385 12.8574 16.8969C12.1283 15.8552 11.373 14.9958 10.5918 14.3187C9.86263 13.6416 9.05534 13.1338 8.16992 12.7953C7.28451 12.4567 6.29492 12.2875 5.20117 12.2875H0.904297C0.695964 12.2875 0.526693 12.2224 0.396484 12.0922C0.266276 11.962 0.201172 11.7927 0.201172 11.5844V6.27185C0.201172 6.06352 0.266276 5.89425 0.396484 5.76404C0.526693 5.63383 0.695964 5.56873 0.904297 5.56873H5.20117C7.02409 5.56873 8.65169 5.84216 10.084 6.38904C11.5163 6.93591 12.7793 7.65206 13.873 8.53748C15.0189 9.42289 16.0215 10.4125 16.8809 11.5062C17.7402 12.6 18.5085 13.7198 19.1855 14.8656C19.2897 15.0219 19.3158 15.1911 19.2637 15.3734C19.2116 15.5557 19.1074 15.6989 18.9512 15.8031C18.7949 15.9073 18.6257 15.9333 18.4434 15.8812C18.2611 15.8291 18.1178 15.725 18.0137 15.5687C17.3887 14.5271 16.6855 13.4854 15.9043 12.4437C15.123 11.4021 14.2116 10.4646 13.1699 9.63123C12.1283 8.84998 10.9564 8.19893 9.6543 7.6781C8.35221 7.15727 6.86784 6.89685 5.20117 6.89685H1.5293V10.9594H5.20117C6.45117 10.9594 7.58398 11.1416 8.59961 11.5062C9.61523 11.8708 10.5397 12.4437 11.373 13.225C12.2585 13.9541 13.0918 14.8916 13.873 16.0375C14.6543 17.1833 15.4616 18.4854 16.2949 19.9437C16.347 20.1 16.347 20.2692 16.2949 20.4515C16.2428 20.6338 16.1387 20.7771 15.9824 20.8812C15.9303 20.9333 15.8783 20.9594 15.8262 20.9594C15.7741 20.9594 15.722 20.9594 15.6699 20.9594Z"
        fill="#0E90E4"></path>
    </g>
    <defs>
      <clipPath id="clip0_1_64">
        <rect width="44.69" height="40" fill="white" transform="matrix(1 0 0 -1 0.199951 40.1)"></rect>
      </clipPath>
    </defs>
  </symbol>
  <symbol fill="none" xmlns="http://www.w3.org/2000/svg" viewBox="0 0 41 34" id="LifetimeUpdates">
    <path
      d="M39.4968 33.7406H0.824951C0.668701 33.7406 0.512451 33.6755 0.356201 33.5453C0.199951 33.4151 0.147868 33.2719 0.199951 33.1156L0.121826 1.08438C0.17391 0.928131 0.252035 0.784901 0.356201 0.654694C0.460368 0.524487 0.642659 0.459381 0.903076 0.459381H39.4187C39.6791 0.459381 39.8614 0.524487 39.9656 0.654694C40.0697 0.784901 40.1479 0.928131 40.2 1.08438L40.1218 33.1156C40.1739 33.2719 40.1218 33.4151 39.9656 33.5453C39.8093 33.6755 39.6531 33.7406 39.4968 33.7406ZM1.44995 32.4125H38.8718L38.7937 1.78751H1.52808L1.44995 32.4125ZM38.8718 8.42813H1.44995C1.34578 8.42813 1.21558 8.36303 1.05933 8.23282C0.903076 8.10261 0.850993 7.95938 0.903076 7.80313C0.850993 7.5948 0.903076 7.42553 1.05933 7.29532C1.21558 7.16511 1.34578 7.10001 1.44995 7.10001H38.8718C38.976 7.10001 39.1062 7.16511 39.2625 7.29532C39.4187 7.42553 39.4708 7.5948 39.4187 7.80313C39.4708 7.95938 39.4187 8.10261 39.2625 8.23282C39.1062 8.36303 38.976 8.42813 38.8718 8.42813ZM5.43433 4.75626C5.48641 5.01667 5.42131 5.22501 5.23901 5.38126C5.05672 5.53751 4.86141 5.61563 4.65308 5.61563C4.39266 5.61563 4.19735 5.53751 4.06714 5.38126C3.93693 5.22501 3.84578 5.01667 3.7937 4.75626C3.84578 4.54792 3.93693 4.35261 4.06714 4.17032C4.19735 3.98803 4.39266 3.89688 4.65308 3.89688C4.86141 3.89688 5.05672 3.98803 5.23901 4.17032C5.42131 4.35261 5.48641 4.54792 5.43433 4.75626ZM8.87183 4.75626C8.81974 5.01667 8.71558 5.22501 8.55933 5.38126C8.40308 5.53751 8.19474 5.61563 7.93433 5.61563C7.77808 5.61563 7.59578 5.53751 7.38745 5.38126C7.17912 5.22501 7.10099 5.01667 7.15308 4.75626C7.10099 4.54792 7.17912 4.35261 7.38745 4.17032C7.59578 3.98803 7.77808 3.89688 7.93433 3.89688C8.19474 3.89688 8.40308 3.98803 8.55933 4.17032C8.71558 4.35261 8.81974 4.54792 8.87183 4.75626ZM12.075 4.75626C12.127 5.01667 12.0619 5.22501 11.8796 5.38126C11.6973 5.53751 11.5281 5.61563 11.3718 5.61563C11.0593 5.61563 10.838 5.53751 10.7078 5.38126C10.5776 5.22501 10.4864 5.01667 10.4343 4.75626C10.4864 4.54792 10.5776 4.35261 10.7078 4.17032C10.838 3.98803 11.0593 3.89688 11.3718 3.89688C11.5281 3.89688 11.6973 3.98803 11.8796 4.17032C12.0619 4.35261 12.127 4.54792 12.075 4.75626ZM24.6531 20.6938C24.3927 20.6938 24.2104 20.6287 24.1062 20.4984C24.002 20.3682 23.9239 20.225 23.8718 20.0688L23.95 18.8188C23.8979 18.6104 23.95 18.4412 24.1062 18.3109C24.2625 18.1807 24.4187 18.1156 24.575 18.1156C24.7833 18.1156 24.9395 18.1807 25.0437 18.3109C25.1479 18.4412 25.226 18.6104 25.2781 18.8188L25.2 20.0688C25.252 20.225 25.2 20.3682 25.0437 20.4984C24.8875 20.6287 24.7572 20.6938 24.6531 20.6938ZM24.575 29.7563C24.4187 29.7563 24.2625 29.6912 24.1062 29.5609C23.95 29.4307 23.8979 29.2615 23.95 29.0531L23.8718 27.8031C23.9239 27.6469 24.002 27.5037 24.1062 27.3734C24.2104 27.2432 24.3927 27.1781 24.6531 27.1781C24.7572 27.1781 24.8875 27.2432 25.0437 27.3734C25.2 27.5037 25.252 27.6469 25.2 27.8031L25.2781 29.0531C25.226 29.2615 25.1479 29.4307 25.0437 29.5609C24.9395 29.6912 24.7833 29.7563 24.575 29.7563ZM20.7468 24.6H19.4187C19.2625 24.6 19.1062 24.5349 18.95 24.4047C18.7937 24.2745 18.7416 24.1052 18.7937 23.8969C18.7416 23.7406 18.7937 23.5974 18.95 23.4672C19.1062 23.337 19.2625 23.2719 19.4187 23.2719H20.7468C20.851 23.2719 20.9812 23.337 21.1375 23.4672C21.2937 23.5974 21.3458 23.7406 21.2937 23.8969C21.3458 24.1052 21.2937 24.2745 21.1375 24.4047C20.9812 24.5349 20.851 24.6 20.7468 24.6ZM29.6531 24.6H28.4812C28.2729 24.6 28.1166 24.5349 28.0125 24.4047C27.9083 24.2745 27.8302 24.1052 27.7781 23.8969C27.8302 23.7406 27.9083 23.5974 28.0125 23.4672C28.1166 23.337 28.2729 23.2719 28.4812 23.2719H29.6531C29.9135 23.2719 30.0958 23.337 30.2 23.4672C30.3041 23.5974 30.3822 23.7406 30.4343 23.8969C30.3822 24.1052 30.3041 24.2745 30.2 24.4047C30.0958 24.5349 29.9135 24.6 29.6531 24.6ZM21.8406 21.8656C21.7364 21.8656 21.6583 21.8526 21.6062 21.8266C21.5541 21.8005 21.45 21.7354 21.2937 21.6313L20.5125 20.7719C20.3041 20.6677 20.213 20.5115 20.239 20.3031C20.2651 20.0948 20.3302 19.9385 20.4343 19.8344C20.5906 19.6781 20.7598 19.6 20.9421 19.6C21.1244 19.6 21.2937 19.6781 21.45 19.8344L22.2312 20.6938C22.4395 20.85 22.5307 21.0193 22.5046 21.2016C22.4786 21.3839 22.4135 21.5271 22.3093 21.6313C22.2052 21.7354 22.127 21.8005 22.075 21.8266C22.0229 21.8526 21.9187 21.8656 21.7625 21.8656H21.8406ZM28.2468 28.2719C28.0906 28.2719 27.9864 28.2458 27.9343 28.1938C27.8822 28.1417 27.8041 28.0896 27.7 28.0375L26.9187 27.1781C26.7104 27.0219 26.6192 26.8526 26.6453 26.6703C26.6713 26.488 26.7364 26.3448 26.8406 26.2406C26.9968 26.0844 27.1531 26.0063 27.3093 26.0063C27.4656 26.0063 27.6479 26.0844 27.8562 26.2406L28.6375 27.1C28.8458 27.2042 28.9369 27.3604 28.9109 27.5688C28.8848 27.7771 28.8197 27.9333 28.7156 28.0375C28.6114 28.0896 28.5333 28.1417 28.4812 28.1938C28.4291 28.2458 28.325 28.2719 28.1687 28.2719H28.2468ZM20.9812 28.2719C20.825 28.2719 20.7208 28.2458 20.6687 28.1938C20.6166 28.1417 20.5385 28.0896 20.4343 28.0375C20.3822 27.9333 20.3432 27.7771 20.3171 27.5688C20.2911 27.3604 20.3562 27.2042 20.5125 27.1L21.2937 26.2406C21.502 26.0844 21.6843 26.0063 21.8406 26.0063C21.9968 26.0063 22.1531 26.0844 22.3093 26.2406C22.4135 26.3448 22.4786 26.488 22.5046 26.6703C22.5307 26.8526 22.4395 27.0219 22.2312 27.1781L21.45 28.0375C21.3458 28.0896 21.2677 28.1417 21.2156 28.1938C21.1635 28.2458 21.0593 28.2719 20.9031 28.2719H20.9812ZM27.3875 21.8656C27.2312 21.8656 27.127 21.8526 27.075 21.8266C27.0229 21.8005 26.9447 21.7354 26.8406 21.6313C26.7364 21.5271 26.6713 21.3839 26.6453 21.2016C26.6192 21.0193 26.7104 20.85 26.9187 20.6938L27.7 19.8344C27.8562 19.6781 28.0255 19.6 28.2078 19.6C28.3901 19.6 28.5593 19.6781 28.7156 19.8344C28.8197 19.9385 28.8848 20.0948 28.9109 20.3031C28.9369 20.5115 28.8458 20.6677 28.6375 20.7719L27.8562 21.6313C27.7 21.7354 27.5958 21.8005 27.5437 21.8266C27.4916 21.8526 27.4135 21.8656 27.3093 21.8656H27.3875ZM24.6531 28.1938C23.976 28.1938 23.377 28.0766 22.8562 27.8422C22.3354 27.6078 21.8666 27.3083 21.45 26.9438C21.0854 26.5271 20.7729 26.0453 20.5125 25.4984C20.252 24.9516 20.1479 24.3917 20.2 23.8188C20.1479 23.1938 20.252 22.6078 20.5125 22.0609C20.7729 21.5141 21.0854 21.0583 21.45 20.6938C21.8666 20.2771 22.3354 19.9516 22.8562 19.7172C23.377 19.4828 23.976 19.3656 24.6531 19.3656C25.1739 19.3656 25.7208 19.4828 26.2937 19.7172C26.8666 19.9516 27.3093 20.2771 27.6218 20.6938C28.0906 21.0583 28.4291 21.5141 28.6375 22.0609C28.8458 22.6078 28.976 23.1938 29.0281 23.8188C28.976 24.3917 28.8458 24.9516 28.6375 25.4984C28.4291 26.0453 28.0906 26.5271 27.6218 26.9438C27.3093 27.3083 26.8666 27.6078 26.2937 27.8422C25.7208 28.0766 25.1739 28.1938 24.6531 28.1938ZM24.575 20.6938C24.1583 20.6938 23.7546 20.7719 23.364 20.9281C22.9734 21.0844 22.6739 21.3188 22.4656 21.6313C22.101 21.8917 21.8536 22.2172 21.7234 22.6078C21.5932 22.9984 21.502 23.4021 21.45 23.8188C21.502 24.2354 21.5932 24.626 21.7234 24.9906C21.8536 25.3552 22.101 25.6938 22.4656 26.0063C22.6739 26.2667 22.9734 26.475 23.364 26.6313C23.7546 26.7875 24.1583 26.8656 24.575 26.8656C25.0437 26.8656 25.4473 26.7875 25.7859 26.6313C26.1244 26.475 26.45 26.2667 26.7625 26.0063C27.0229 25.6938 27.2442 25.3552 27.4265 24.9906C27.6088 24.626 27.6739 24.2354 27.6218 23.8188C27.6739 23.4021 27.6088 22.9984 27.4265 22.6078C27.2442 22.2172 27.0229 21.8917 26.7625 21.6313C26.45 21.3188 26.1244 21.0844 25.7859 20.9281C25.4473 20.7719 25.0437 20.6938 24.575 20.6938ZM19.6531 13.6625C19.3927 13.6625 19.2104 13.5974 19.1062 13.4672C19.002 13.337 18.9239 13.1677 18.8718 12.9594L18.95 12.1C18.8979 11.9438 18.95 11.8005 19.1062 11.6703C19.2625 11.5401 19.4187 11.475 19.575 11.475C19.7833 11.475 19.9395 11.5401 20.0437 11.6703C20.1479 11.8005 20.226 11.9438 20.2781 12.1L20.2 12.9594C20.252 13.1677 20.2 13.337 20.0437 13.4672C19.8875 13.5974 19.7572 13.6625 19.6531 13.6625ZM19.575 19.4438C19.4187 19.4438 19.2625 19.3787 19.1062 19.2484C18.95 19.1182 18.8979 18.975 18.95 18.8188L18.8718 17.9594C18.9239 17.8031 19.002 17.6469 19.1062 17.4906C19.2104 17.3344 19.3927 17.2563 19.6531 17.2563C19.7572 17.2563 19.8875 17.3214 20.0437 17.4516C20.2 17.5818 20.252 17.751 20.2 17.9594L20.2781 18.8188C20.226 18.975 20.1479 19.1182 20.0437 19.2484C19.9395 19.3787 19.7833 19.4438 19.575 19.4438ZM17.1531 16.1625H16.2156C16.0593 16.1625 15.9031 16.0974 15.7468 15.9672C15.5906 15.837 15.5385 15.6677 15.5906 15.4594C15.5385 15.3031 15.5906 15.1599 15.7468 15.0297C15.9031 14.8995 16.0593 14.8344 16.2156 14.8344H17.1531C17.2572 14.8344 17.3875 14.8995 17.5437 15.0297C17.7 15.1599 17.752 15.3031 17.7 15.4594C17.752 15.6677 17.7 15.837 17.5437 15.9672C17.3875 16.0974 17.2572 16.1625 17.1531 16.1625ZM22.8562 16.1625H22.1531C21.8927 16.1625 21.7104 16.0974 21.6062 15.9672C21.502 15.837 21.4239 15.6677 21.3718 15.4594C21.4239 15.3031 21.502 15.1599 21.6062 15.0297C21.7104 14.8995 21.8927 14.8344 22.1531 14.8344H22.8562C23.1166 14.8344 23.2989 14.8995 23.4031 15.0297C23.5072 15.1599 23.5854 15.3031 23.6375 15.4594C23.5854 15.6677 23.5072 15.837 23.4031 15.9672C23.2989 16.0974 23.1166 16.1625 22.8562 16.1625ZM17.8562 14.3656C17.7 14.3656 17.5958 14.3526 17.5437 14.3266C17.4916 14.3005 17.4135 14.2354 17.3093 14.1313L16.7625 13.5844C16.6062 13.4281 16.5411 13.2589 16.5671 13.0766C16.5932 12.8943 16.6322 12.751 16.6843 12.6469C16.8927 12.4906 17.075 12.4125 17.2312 12.4125C17.3875 12.4125 17.5437 12.4906 17.7 12.6469L18.2468 13.1938C18.4031 13.35 18.4682 13.5193 18.4421 13.7016C18.4161 13.8839 18.377 14.0271 18.325 14.1313C18.2208 14.2354 18.1427 14.3005 18.0906 14.3266C18.0385 14.3526 17.9343 14.3656 17.7781 14.3656H17.8562ZM21.9968 18.5063C21.8406 18.5063 21.7364 18.4802 21.6843 18.4281C21.6322 18.376 21.5541 18.324 21.45 18.2719L20.9031 17.725C20.7468 17.5688 20.6817 17.3995 20.7078 17.2172C20.7338 17.0349 20.7729 16.8917 20.825 16.7875C21.0333 16.6313 21.2156 16.5531 21.3718 16.5531C21.5281 16.5531 21.6843 16.6313 21.8406 16.7875L22.3875 17.3344C22.5437 17.4906 22.6088 17.6599 22.5828 17.8422C22.5567 18.0245 22.5177 18.1677 22.4656 18.2719C22.3093 18.376 22.2052 18.4412 22.1531 18.4672C22.101 18.4932 22.0229 18.5063 21.9187 18.5063H21.9968ZM17.2312 18.5063C17.127 18.5063 17.0489 18.4802 16.9968 18.4281C16.9447 18.376 16.8406 18.324 16.6843 18.2719C16.6322 18.1677 16.5932 18.0245 16.5671 17.8422C16.5411 17.6599 16.6062 17.4906 16.7625 17.3344L17.3093 16.7875C17.4656 16.6313 17.6218 16.5531 17.7781 16.5531C17.9343 16.5531 18.1166 16.6313 18.325 16.7875C18.377 16.8917 18.4161 17.0349 18.4421 17.2172C18.4682 17.3995 18.4031 17.5688 18.2468 17.725L17.7 18.2719C17.5958 18.324 17.5177 18.376 17.4656 18.4281C17.4135 18.4802 17.3093 18.5063 17.1531 18.5063H17.2312ZM21.3718 14.3656C21.2677 14.3656 21.1765 14.3526 21.0984 14.3266C21.0203 14.3005 20.9291 14.2354 20.825 14.1313C20.7729 14.0271 20.7338 13.8839 20.7078 13.7016C20.6817 13.5193 20.7468 13.35 20.9031 13.1938L21.45 12.6469C21.6062 12.4906 21.7625 12.4125 21.9187 12.4125C22.075 12.4125 22.2572 12.4906 22.4656 12.6469C22.5177 12.751 22.5567 12.8943 22.5828 13.0766C22.6088 13.2589 22.5437 13.4281 22.3875 13.5844L21.8406 14.1313C21.7364 14.2354 21.6583 14.3005 21.6062 14.3266C21.5541 14.3526 21.45 14.3656 21.2937 14.3656H21.3718ZM19.6531 18.6625C19.1322 18.6625 18.6895 18.5714 18.325 18.3891C17.9604 18.2068 17.6218 17.9854 17.3093 17.725C17.0489 17.4125 16.8276 17.0609 16.6453 16.6703C16.463 16.2797 16.3979 15.876 16.45 15.4594C16.3979 15.0427 16.463 14.6391 16.6453 14.2484C16.8276 13.8578 17.0489 13.5063 17.3093 13.1938C17.6218 12.9333 17.9604 12.725 18.325 12.5688C18.6895 12.4125 19.1322 12.3344 19.6531 12.3344C20.0177 12.3344 20.4083 12.4125 20.825 12.5688C21.2416 12.725 21.5541 12.9333 21.7625 13.1938C22.127 13.5063 22.3744 13.8578 22.5046 14.2484C22.6348 14.6391 22.726 15.0427 22.7781 15.4594C22.726 15.876 22.6348 16.2797 22.5046 16.6703C22.3744 17.0609 22.127 17.4125 21.7625 17.725C21.5541 17.9854 21.2416 18.2068 20.825 18.3891C20.4083 18.5714 20.0177 18.6625 19.6531 18.6625ZM19.575 13.6625C19.3666 13.6625 19.1322 13.7016 18.8718 13.7797C18.6114 13.8578 18.4291 13.975 18.325 14.1313C18.1166 14.3396 17.9734 14.5479 17.8953 14.7563C17.8171 14.9646 17.752 15.199 17.7 15.4594C17.752 15.7198 17.8171 15.9542 17.8953 16.1625C17.9734 16.3708 18.1166 16.5792 18.325 16.7875C18.4291 16.9438 18.6114 17.074 18.8718 17.1781C19.1322 17.2823 19.3666 17.3344 19.575 17.3344C19.8354 17.3344 20.0697 17.2823 20.2781 17.1781C20.4864 17.074 20.6947 16.9438 20.9031 16.7875C21.0072 16.5792 21.1244 16.3708 21.2546 16.1625C21.3848 15.9542 21.4239 15.7198 21.3718 15.4594C21.4239 15.199 21.3848 14.9646 21.2546 14.7563C21.1244 14.5479 21.0072 14.3396 20.9031 14.1313C20.6947 13.975 20.4864 13.8578 20.2781 13.7797C20.0697 13.7016 19.8354 13.6625 19.575 13.6625ZM14.6531 23.6625C14.3927 23.6625 14.2104 23.5974 14.1062 23.4672C14.002 23.337 13.9239 23.1677 13.8718 22.9594L13.95 22.1C13.8979 21.9438 13.95 21.8005 14.1062 21.6703C14.2625 21.5401 14.4187 21.475 14.575 21.475C14.7833 21.475 14.9395 21.5401 15.0437 21.6703C15.1479 21.8005 15.226 21.9438 15.2781 22.1L15.2 22.9594C15.252 23.1677 15.2 23.337 15.0437 23.4672C14.8875 23.5974 14.7572 23.6625 14.6531 23.6625ZM14.575 29.4438C14.4187 29.4438 14.2625 29.3787 14.1062 29.2484C13.95 29.1182 13.8979 28.975 13.95 28.8188L13.8718 27.9594C13.9239 27.8031 14.002 27.6469 14.1062 27.4906C14.2104 27.3344 14.3927 27.2563 14.6531 27.2563C14.7572 27.2563 14.8875 27.3344 15.0437 27.4906C15.2 27.6469 15.252 27.8031 15.2 27.9594L15.2781 28.8188C15.226 28.975 15.1479 29.1182 15.0437 29.2484C14.9395 29.3787 14.7833 29.4438 14.575 29.4438ZM12.1531 26.1625H11.2156C11.0593 26.1625 10.9031 26.0974 10.7468 25.9672C10.5906 25.837 10.5385 25.6677 10.5906 25.4594C10.5385 25.3031 10.5906 25.1469 10.7468 24.9906C10.9031 24.8344 11.0593 24.7563 11.2156 24.7563H12.1531C12.2572 24.7563 12.3875 24.8344 12.5437 24.9906C12.7 25.1469 12.752 25.3031 12.7 25.4594C12.752 25.6677 12.7 25.837 12.5437 25.9672C12.3875 26.0974 12.2572 26.1625 12.1531 26.1625ZM17.8562 26.1625H17.1531C16.8927 26.1625 16.7104 26.0974 16.6062 25.9672C16.502 25.837 16.4239 25.6677 16.3718 25.4594C16.4239 25.3031 16.502 25.1469 16.6062 24.9906C16.7104 24.8344 16.8927 24.7563 17.1531 24.7563H17.8562C18.1166 24.7563 18.2989 24.8344 18.4031 24.9906C18.5072 25.1469 18.5854 25.3031 18.6375 25.4594C18.5854 25.6677 18.5072 25.837 18.4031 25.9672C18.2989 26.0974 18.1166 26.1625 17.8562 26.1625ZM12.8562 24.3656C12.7 24.3656 12.5958 24.3526 12.5437 24.3266C12.4916 24.3005 12.4135 24.2354 12.3093 24.1313L11.7625 23.5844C11.6062 23.4281 11.5411 23.2589 11.5671 23.0766C11.5932 22.8943 11.6322 22.751 11.6843 22.6469C11.8927 22.4906 12.075 22.4125 12.2312 22.4125C12.3875 22.4125 12.5437 22.4906 12.7 22.6469L13.2468 23.1938C13.4031 23.35 13.4682 23.5193 13.4421 23.7016C13.4161 23.8839 13.377 24.0271 13.325 24.1313C13.2208 24.2354 13.1427 24.3005 13.0906 24.3266C13.0385 24.3526 12.9343 24.3656 12.7781 24.3656H12.8562ZM16.9968 28.5063C16.8406 28.5063 16.7364 28.4802 16.6843 28.4281C16.6322 28.376 16.5541 28.324 16.45 28.2719L15.9031 27.725C15.7468 27.5688 15.6817 27.3995 15.7078 27.2172C15.7338 27.0349 15.7729 26.8917 15.825 26.7875C16.0333 26.6313 16.2156 26.5531 16.3718 26.5531C16.5281 26.5531 16.6843 26.6313 16.8406 26.7875L17.3875 27.3344C17.5437 27.4906 17.6088 27.6599 17.5828 27.8422C17.5567 28.0245 17.5177 28.1677 17.4656 28.2719C17.3093 28.324 17.2052 28.376 17.1531 28.4281C17.101 28.4802 17.0229 28.5063 16.9187 28.5063H16.9968ZM12.2312 28.5063C12.127 28.5063 12.0489 28.4802 11.9968 28.4281C11.9447 28.376 11.8406 28.324 11.6843 28.2719C11.6322 28.1677 11.5932 28.0245 11.5671 27.8422C11.5411 27.6599 11.6062 27.4906 11.7625 27.3344L12.3093 26.7875C12.4656 26.6313 12.6218 26.5531 12.7781 26.5531C12.9343 26.5531 13.1166 26.6313 13.325 26.7875C13.377 26.8917 13.4161 27.0349 13.4421 27.2172C13.4682 27.3995 13.4031 27.5688 13.2468 27.725L12.7 28.2719C12.5958 28.324 12.5177 28.376 12.4656 28.4281C12.4135 28.4802 12.3093 28.5063 12.1531 28.5063H12.2312ZM16.3718 24.3656C16.2677 24.3656 16.1765 24.3526 16.0984 24.3266C16.0203 24.3005 15.9291 24.2354 15.825 24.1313C15.7729 24.0271 15.7338 23.8839 15.7078 23.7016C15.6817 23.5193 15.7468 23.35 15.9031 23.1938L16.45 22.6469C16.6062 22.4906 16.7625 22.4125 16.9187 22.4125C17.075 22.4125 17.2572 22.4906 17.4656 22.6469C17.5177 22.751 17.5567 22.8943 17.5828 23.0766C17.6088 23.2589 17.5437 23.4281 17.3875 23.5844L16.8406 24.1313C16.7364 24.2354 16.6583 24.3005 16.6062 24.3266C16.5541 24.3526 16.45 24.3656 16.2937 24.3656H16.3718ZM14.6531 28.6625C14.1322 28.6625 13.6895 28.5714 13.325 28.3891C12.9604 28.2068 12.6218 27.9854 12.3093 27.725C12.0489 27.4125 11.8276 27.0609 11.6453 26.6703C11.463 26.2797 11.3979 25.876 11.45 25.4594C11.3979 25.0427 11.463 24.6391 11.6453 24.2484C11.8276 23.8578 12.0489 23.5063 12.3093 23.1938C12.6218 22.9333 12.9604 22.725 13.325 22.5688C13.6895 22.4125 14.1322 22.3344 14.6531 22.3344C15.0177 22.3344 15.4083 22.4125 15.825 22.5688C16.2416 22.725 16.5541 22.9333 16.7625 23.1938C17.127 23.5063 17.3744 23.8578 17.5046 24.2484C17.6348 24.6391 17.726 25.0427 17.7781 25.4594C17.726 25.876 17.6348 26.2797 17.5046 26.6703C17.3744 27.0609 17.127 27.4125 16.7625 27.725C16.5541 27.9854 16.2416 28.2068 15.825 28.3891C15.4083 28.5714 15.0177 28.6625 14.6531 28.6625ZM14.575 23.6625C14.3666 23.6625 14.1322 23.7016 13.8718 23.7797C13.6114 23.8578 13.4291 23.975 13.325 24.1313C13.1166 24.3396 12.9734 24.5479 12.8953 24.7563C12.8171 24.9646 12.752 25.199 12.7 25.4594C12.752 25.7198 12.8171 25.9542 12.8953 26.1625C12.9734 26.3708 13.1166 26.5792 13.325 26.7875C13.4291 26.9438 13.6114 27.074 13.8718 27.1781C14.1322 27.2823 14.3666 27.3344 14.575 27.3344C14.8354 27.3344 15.0697 27.2823 15.2781 27.1781C15.4864 27.074 15.6947 26.9438 15.9031 26.7875C16.0072 26.5792 16.1244 26.3708 16.2546 26.1625C16.3848 25.9542 16.4239 25.7198 16.3718 25.4594C16.4239 25.199 16.3848 24.9646 16.2546 24.7563C16.1244 24.5479 16.0072 24.3396 15.9031 24.1313C15.6947 23.975 15.4864 23.8578 15.2781 23.7797C15.0697 23.7016 14.8354 23.6625 14.575 23.6625Z"
      fill="#0E90E4"></path>
  </symbol>
  <symbol fill="none" xmlns="http://www.w3.org/2000/svg" viewBox="0 0 42 41" id="LightSpeed">
    <g clip-path="url(#clip0_1_29)">
      <path
        d="M20.884 35.8031C20.4674 35.8031 20.0507 35.712 19.634 35.5297C19.2174 35.3474 18.9049 35.126 18.6965 34.8656C18.3319 34.5531 18.0846 34.2016 17.9543 33.8109C17.8241 33.4203 17.733 33.0167 17.6809 32.6C17.733 32.1833 17.8241 31.7797 17.9543 31.3891C18.0846 30.9984 18.3319 30.6469 18.6965 30.3344C18.9049 30.074 19.2174 29.8526 19.634 29.6703C20.0507 29.488 20.4674 29.3969 20.884 29.3969C21.3528 29.3969 21.7694 29.488 22.134 29.6703C22.4986 29.8526 22.8372 30.074 23.1497 30.3344C23.4101 30.6469 23.6314 30.9984 23.8137 31.3891C23.996 31.7797 24.0611 32.1833 24.009 32.6C24.0611 33.0167 23.996 33.4203 23.8137 33.8109C23.6314 34.2016 23.4101 34.5531 23.1497 34.8656C22.8372 35.126 22.4986 35.3474 22.134 35.5297C21.7694 35.712 21.3528 35.8031 20.884 35.8031ZM20.9622 30.8031C20.6497 30.8031 20.3892 30.8422 20.1809 30.9203C19.9726 30.9984 19.7642 31.1156 19.5559 31.2719C19.4517 31.4802 19.3346 31.6885 19.2043 31.8969C19.0741 32.1052 19.0351 32.3396 19.0872 32.6C19.0351 32.8604 19.0741 33.0948 19.2043 33.3031C19.3346 33.5115 19.4517 33.7198 19.5559 33.9281C19.7642 34.0844 19.9726 34.2016 20.1809 34.2797C20.3892 34.3578 20.6497 34.3969 20.9622 34.3969C21.1184 34.3969 21.3267 34.3578 21.5872 34.2797C21.8476 34.2016 22.0299 34.0844 22.134 33.9281C22.3424 33.7198 22.4856 33.5115 22.5637 33.3031C22.6418 33.0948 22.7069 32.8604 22.759 32.6C22.7069 32.3396 22.6418 32.1052 22.5637 31.8969C22.4856 31.6885 22.3424 31.4802 22.134 31.2719C22.0299 31.1156 21.8476 30.9984 21.5872 30.9203C21.3267 30.8422 21.1184 30.8031 20.9622 30.8031ZM40.5715 12.0531C40.5195 12.0531 40.4543 12.0401 40.3762 12.0141C40.2981 11.988 40.259 11.949 40.259 11.8969C38.7486 10.9073 37.2382 10.0349 35.7278 9.27969C34.2174 8.52448 32.6288 7.88647 30.9622 7.36563C29.3997 6.8448 27.759 6.45417 26.0403 6.19376C24.3215 5.93334 22.6288 5.80313 20.9622 5.80313C19.1392 5.80313 17.3944 5.93334 15.7278 6.19376C14.0611 6.45417 12.3945 6.8448 10.7278 7.36563C9.16528 7.88647 7.60278 8.52448 6.04028 9.27969C4.47778 10.0349 2.99341 10.9073 1.58716 11.8969C1.43091 12.001 1.27466 12.0401 1.11841 12.0141C0.962158 11.988 0.805908 11.8969 0.649658 11.7406C0.597575 11.5844 0.571533 11.4151 0.571533 11.2328C0.571533 11.0505 0.6757 10.9073 0.884033 10.8031C2.29028 9.76147 3.8007 8.85001 5.41528 8.06876C7.02987 7.28751 8.67049 6.61042 10.3372 6.03751C12.0559 5.51667 13.7877 5.11303 15.5325 4.82657C17.2773 4.54011 19.0872 4.39688 20.9622 4.39688C22.6809 4.39688 24.4387 4.54011 26.2356 4.82657C28.0325 5.11303 29.7382 5.51667 31.3528 6.03751C33.1236 6.61042 34.7903 7.28751 36.3528 8.06876C37.9153 8.85001 39.4778 9.76147 41.0403 10.8031C41.0924 10.9073 41.1575 11.0505 41.2356 11.2328C41.3137 11.4151 41.2747 11.5844 41.1184 11.7406C41.0663 11.8448 40.9882 11.9229 40.884 11.975C40.7799 12.0271 40.7017 12.0531 40.6497 12.0531H40.5715ZM6.89966 18.5375C6.84757 18.5375 6.76945 18.5115 6.66528 18.4594C6.56112 18.4073 6.48299 18.3292 6.43091 18.225C6.27466 18.1208 6.22257 17.9776 6.27466 17.7953C6.32674 17.613 6.40487 17.4698 6.50903 17.3656C7.65487 16.5844 8.77466 15.9073 9.86841 15.3344C10.9622 14.7615 12.1601 14.2927 13.4622 13.9281C14.608 13.5635 15.8189 13.2771 17.095 13.0688C18.371 12.8604 19.634 12.7563 20.884 12.7563C22.1861 12.7563 23.4491 12.8604 24.6731 13.0688C25.8971 13.2771 27.1601 13.5635 28.4622 13.9281C29.608 14.2927 30.7538 14.7615 31.8997 15.3344C33.0455 15.9073 34.1392 16.5844 35.1809 17.3656C35.3892 17.4698 35.4934 17.613 35.4934 17.7953C35.4934 17.9776 35.4674 18.1208 35.4153 18.225C35.259 18.3813 35.1028 18.4724 34.9465 18.4984C34.7903 18.5245 34.608 18.4854 34.3997 18.3813C33.4622 17.7042 32.4335 17.0922 31.3137 16.5453C30.1939 15.9984 29.0872 15.5427 27.9934 15.1781C26.8476 14.8135 25.6887 14.5401 24.5168 14.3578C23.345 14.1755 22.134 14.0844 20.884 14.0844C19.6861 14.0844 18.4882 14.1755 17.2903 14.3578C16.0924 14.5401 14.9465 14.8135 13.8528 15.1781C12.6549 15.5427 11.5221 15.9984 10.4543 16.5453C9.38664 17.0922 8.33195 17.7042 7.29028 18.3813C7.29028 18.4333 7.25122 18.4724 7.1731 18.4984C7.09497 18.5245 7.02987 18.5375 6.97778 18.5375H6.89966ZM12.6809 25.0219C12.6288 25.0219 12.5377 24.9958 12.4075 24.9438C12.2773 24.8917 12.2122 24.8396 12.2122 24.7875C12.0559 24.6313 12.0038 24.462 12.0559 24.2797C12.108 24.0974 12.1861 23.9542 12.2903 23.85C12.9674 23.3813 13.6314 22.9776 14.2825 22.6391C14.9335 22.3005 15.6497 22.0271 16.4309 21.8188C17.108 21.5583 17.8372 21.376 18.6184 21.2719C19.3997 21.1677 20.1549 21.1156 20.884 21.1156C21.6653 21.1156 22.4205 21.1677 23.1497 21.2719C23.8788 21.376 24.634 21.5583 25.4153 21.8188C26.0924 22.0271 26.7825 22.3005 27.4856 22.6391C28.1887 22.9776 28.8267 23.3813 29.3997 23.85C29.608 23.9542 29.7122 24.0974 29.7122 24.2797C29.7122 24.462 29.6861 24.6313 29.634 24.7875C29.4778 24.8917 29.3215 24.9698 29.1653 25.0219C29.009 25.074 28.8267 25.0479 28.6184 24.9438C28.0976 24.5271 27.5116 24.1625 26.8606 23.85C26.2096 23.5375 25.5976 23.2771 25.0247 23.0688C24.2955 22.8604 23.6054 22.7042 22.9543 22.6C22.3033 22.4958 21.6132 22.4438 20.884 22.4438C20.2069 22.4438 19.5168 22.4958 18.8137 22.6C18.1106 22.7042 17.4465 22.8604 16.8215 23.0688C16.1445 23.2771 15.5064 23.5375 14.9075 23.85C14.3085 24.1625 13.6965 24.5271 13.0715 24.9438C13.0715 24.9438 13.0195 24.9568 12.9153 24.9828C12.8111 25.0089 12.759 25.0219 12.759 25.0219H12.6809Z"
        fill="#0E90E4"></path>
    </g>
    <defs>
      <clipPath id="clip0_1_29">
        <rect width="40.71" height="40" fill="white" transform="matrix(1 0 0 -1 0.48999 40.1)"></rect>
      </clipPath>
    </defs>
  </symbol>
  <symbol fill="none" xmlns="http://www.w3.org/2000/svg" viewBox="0 0 41 41" id="ProfessionalDesign">
    <path
      d="M19.3406 27.6L12.4656 20.725L13.4031 19.7875L20.2781 26.6625L19.3406 27.6ZM32.075 16.0375C31.9708 16.0375 31.8796 16.0245 31.8015 15.9984C31.7234 15.9724 31.6322 15.9333 31.5281 15.8812L21.45 5.72498L12.4656 14.7094C12.3614 14.8135 12.2182 14.8656 12.0359 14.8656C11.8536 14.8656 11.6843 14.8135 11.5281 14.7094C11.4239 14.5531 11.3718 14.3838 11.3718 14.2015C11.3718 14.0192 11.4239 13.876 11.5281 13.7719L20.9812 4.31873C21.0854 4.16248 21.2286 4.08435 21.4109 4.08435C21.5932 4.08435 21.7625 4.16248 21.9187 4.31873L32.5437 14.9437C32.6479 15.0479 32.7 15.1911 32.7 15.3734C32.7 15.5557 32.6479 15.725 32.5437 15.8812C32.4395 15.9333 32.3484 15.9724 32.2703 15.9984C32.1921 16.0245 32.127 16.0375 32.075 16.0375ZM4.96558 36.1156C4.86141 36.1156 4.77026 36.0896 4.69214 36.0375C4.61401 35.9854 4.54891 35.9333 4.49683 35.8812C4.34058 35.7771 4.26245 35.6338 4.26245 35.4515C4.26245 35.2692 4.34058 35.1 4.49683 34.9437L8.01245 31.4281C8.11662 31.2719 8.25985 31.1937 8.44214 31.1937C8.62443 31.1937 8.7937 31.2719 8.94995 31.4281C9.05412 31.5323 9.1062 31.6755 9.1062 31.8578C9.1062 32.0401 9.05412 32.2094 8.94995 32.3656L5.43433 35.8812C5.33016 35.9333 5.23901 35.9854 5.16089 36.0375C5.08276 36.0896 5.01766 36.1156 4.96558 36.1156ZM10.825 34.9437C10.7208 34.9437 10.6296 34.9177 10.5515 34.8656C10.4734 34.8135 10.4083 34.7614 10.3562 34.7094L5.6687 30.0219C5.51245 29.8656 5.43433 29.6963 5.43433 29.514C5.43433 29.3317 5.51245 29.1885 5.6687 29.0844L10.0437 24.7094C10.1479 24.5531 10.2911 24.475 10.4734 24.475C10.6557 24.475 10.825 24.5531 10.9812 24.7094C11.0854 24.8135 11.1375 24.9567 11.1375 25.139C11.1375 25.3213 11.0854 25.4906 10.9812 25.6469L7.07495 29.5531L10.825 33.3031L14.7312 29.3969C14.8354 29.2927 14.9786 29.2406 15.1609 29.2406C15.3432 29.2406 15.5125 29.2927 15.6687 29.3969C15.7729 29.5531 15.825 29.7224 15.825 29.9047C15.825 30.087 15.7729 30.2302 15.6687 30.3344L11.2937 34.7094C11.2416 34.7614 11.1765 34.8135 11.0984 34.8656C11.0203 34.9177 10.9291 34.9437 10.825 34.9437ZM16.6843 31.35C16.6322 31.35 16.5671 31.337 16.489 31.3109C16.4109 31.2849 16.3197 31.2458 16.2156 31.1937L9.18433 24.0844C9.02808 23.9802 8.94995 23.837 8.94995 23.6547C8.94995 23.4724 9.02808 23.3031 9.18433 23.1469L27.4656 4.8656C27.5697 4.76143 27.7 4.67029 27.8562 4.59216C28.0125 4.51404 28.1687 4.47498 28.325 4.47498C28.5333 4.47498 28.7416 4.52706 28.95 4.63123C29.1583 4.73539 29.3666 4.83956 29.575 4.94373C29.7312 5.09998 29.9005 5.25623 30.0828 5.41248C30.2651 5.56873 30.4343 5.75102 30.5906 5.95935L35.5906 10.9594C35.7468 11.1156 35.877 11.2588 35.9812 11.389C36.0854 11.5192 36.1375 11.6625 36.1375 11.8187C36.1375 12.0271 36.0854 12.1963 35.9812 12.3265C35.877 12.4567 35.7468 12.6 35.5906 12.7562L31.9187 16.4281L17.1531 31.1937C17.101 31.2458 17.0359 31.2849 16.9578 31.3109C16.8796 31.337 16.7885 31.35 16.6843 31.35ZM10.5906 23.6156L16.6843 29.7875L34.6531 11.8187L29.6531 6.81873C29.4968 6.71456 29.2755 6.53227 28.989 6.27185C28.7026 6.01143 28.4812 5.88123 28.325 5.88123L10.5906 23.6156Z"
      fill="#0E90E4"></path>
  </symbol>
  <symbol fill="none" xmlns="http://www.w3.org/2000/svg" viewBox="0 0 41 41" id="SecureLogin">
    <g clip-path="url(#clip0_1_59)">
      <path
        d="M23.7156 40.1H10.3562C9.26245 40.1 8.25985 39.8786 7.34839 39.4359C6.43693 38.9932 5.61662 38.3812 4.88745 37.6C4.21037 36.8708 3.67651 35.9854 3.28589 34.9437C2.89526 33.9021 2.69995 32.7823 2.69995 31.5844V19.3969C2.69995 19.2406 2.76506 19.0974 2.89526 18.9672C3.02547 18.837 3.19474 18.7719 3.40308 18.7719H30.7468C30.9031 18.7719 31.0463 18.837 31.1765 18.9672C31.3067 19.0974 31.3718 19.2406 31.3718 19.3969C31.3718 19.6052 31.3067 19.7745 31.1765 19.9047C31.0463 20.0349 30.9031 20.1 30.7468 20.1H4.02808V31.5844C4.02808 32.4698 4.17131 33.3422 4.45776 34.2015C4.74422 35.0609 5.17391 35.8291 5.74683 36.5062C6.26766 37.1833 6.9187 37.7302 7.69995 38.1469C8.4812 38.5635 9.36662 38.7719 10.3562 38.7719H23.7156C24.6531 38.7719 25.5385 38.5765 26.3718 38.1859C27.2052 37.7953 27.9604 37.2614 28.6375 36.5844C29.2625 35.9594 29.7703 35.2172 30.1609 34.3578C30.5515 33.4984 30.7468 32.5739 30.7468 31.5844V26.7406C30.7468 26.5844 30.8119 26.4411 30.9421 26.3109C31.0723 26.1807 31.2156 26.1156 31.3718 26.1156C31.5802 26.1156 31.7494 26.1807 31.8796 26.3109C32.0098 26.4411 32.075 26.5844 32.075 26.7406V31.5844C32.075 32.7302 31.8406 33.8109 31.3718 34.8265C30.9031 35.8422 30.2781 36.7406 29.4968 37.5219C28.7677 38.3031 27.8953 38.9281 26.8796 39.3969C25.864 39.8656 24.8093 40.1 23.7156 40.1ZM30.0437 19.3969C29.8354 19.3969 29.6661 19.3317 29.5359 19.2015C29.4057 19.0713 29.3406 18.9281 29.3406 18.7719V11.5844C29.3406 10.0219 29.0151 8.60258 28.364 7.32654C27.713 6.0505 26.8406 4.99581 25.7468 4.16248C24.6531 3.27706 23.4161 2.59998 22.0359 2.13123C20.6557 1.66248 19.2625 1.4281 17.8562 1.4281H16.2156C14.6531 1.4281 13.2078 1.68852 11.8796 2.20935C10.5515 2.73018 9.39266 3.43331 8.40308 4.31873C7.46558 5.20414 6.72339 6.27185 6.17651 7.52185C5.62964 8.77185 5.3562 10.126 5.3562 11.5844V18.7719C5.3562 18.9281 5.2911 19.0713 5.16089 19.2015C5.03068 19.3317 4.88745 19.3969 4.7312 19.3969C4.52287 19.3969 4.3536 19.3317 4.22339 19.2015C4.09318 19.0713 4.02808 18.9281 4.02808 18.7719V11.5844C4.02808 9.91768 4.32756 8.38123 4.92651 6.97498C5.52547 5.56873 6.37183 4.37081 7.46558 3.38123C8.55933 2.33956 9.84839 1.53227 11.3328 0.959351C12.8171 0.386433 14.4447 0.0999756 16.2156 0.0999756H17.8562C19.6791 0.0999756 21.3718 0.399456 22.9343 0.998413C24.4968 1.59737 25.851 2.41768 26.9968 3.45935C28.1427 4.50102 29.0541 5.71196 29.7312 7.09216C30.4083 8.47237 30.7468 9.96977 30.7468 11.5844V18.7719C30.7468 18.9281 30.6817 19.0713 30.5515 19.2015C30.4213 19.3317 30.252 19.3969 30.0437 19.3969ZM16.9968 33.7719C16.9447 33.7719 16.8796 33.7588 16.8015 33.7328C16.7234 33.7067 16.6322 33.6677 16.5281 33.6156L11.6843 28.7719C11.5281 28.6156 11.45 28.4463 11.45 28.264C11.45 28.0817 11.5281 27.9125 11.6843 27.7562C11.7885 27.6521 11.9317 27.6 12.114 27.6C12.2963 27.6 12.4656 27.6521 12.6218 27.7562L17.075 32.2875L36.6062 17.6C36.7625 17.4958 36.9317 17.4567 37.114 17.4828C37.2963 17.5088 37.4395 17.6 37.5437 17.7562C37.6479 17.9125 37.6869 18.0817 37.6609 18.264C37.6348 18.4463 37.5437 18.5896 37.3875 18.6937L17.3875 33.6937C17.3354 33.7458 17.2833 33.7719 17.2312 33.7719C17.1791 33.7719 17.101 33.7719 16.9968 33.7719Z"
        fill="#0E90E4"></path>
    </g>
    <defs>
      <clipPath id="clip0_1_59">
        <rect width="40" height="40" fill="white" transform="matrix(1 0 0 -1 0.199951 40.1)"></rect>
      </clipPath>
    </defs>
  </symbol>
  <symbol fill="none" xmlns="http://www.w3.org/2000/svg" viewBox="0 0 41 41" id="Real-timeStats">
    <path
      d="M20.2 39.0844C17.5958 39.0844 15.1348 38.5896 12.8171 37.6C10.4994 36.6104 8.4812 35.2562 6.76245 33.5375C5.0437 31.8187 3.68953 29.8005 2.69995 27.4828C1.71037 25.1651 1.21558 22.7041 1.21558 20.1C1.21558 17.6 1.68433 15.2172 2.62183 12.9515C3.55933 10.6859 4.86141 8.69373 6.52808 6.97498C8.14266 5.25623 10.0567 3.87602 12.2703 2.83435C14.4838 1.79268 16.8406 1.21977 19.3406 1.1156C19.3927 1.1156 19.4708 1.12862 19.575 1.15466C19.6791 1.18071 19.7572 1.21977 19.8093 1.27185C19.8614 1.37602 19.9005 1.46716 19.9265 1.54529C19.9526 1.62341 19.9656 1.71456 19.9656 1.81873V18.4594L32.3093 6.27185C32.4135 6.16768 32.5567 6.1156 32.739 6.1156C32.9213 6.1156 33.0906 6.16768 33.2468 6.27185C34.1843 7.15727 35.0307 8.13383 35.7859 9.20154C36.5411 10.2692 37.1531 11.4021 37.6218 12.6C38.1427 13.7458 38.5333 14.9567 38.7937 16.2328C39.0541 17.5088 39.1843 18.7979 39.1843 20.1C39.1843 22.7041 38.6895 25.1651 37.7 27.4828C36.7104 29.8005 35.3562 31.8187 33.6375 33.5375C31.9187 35.2562 29.9135 36.6104 27.6218 37.6C25.3302 38.5896 22.8562 39.0844 20.2 39.0844ZM18.6375 2.52185C16.3979 2.6781 14.3015 3.26404 12.3484 4.27966C10.3953 5.29529 8.68953 6.58435 7.2312 8.14685C5.77287 9.76143 4.62703 11.5844 3.7937 13.6156C2.96037 15.6469 2.5437 17.8083 2.5437 20.1C2.5437 22.4958 2.99943 24.7745 3.91089 26.9359C4.82235 29.0974 6.08537 30.9854 7.69995 32.6C9.31453 34.1625 11.2026 35.4125 13.364 36.35C15.5255 37.2875 17.8041 37.7562 20.2 37.7562C22.6479 37.7562 24.9395 37.2875 27.075 36.35C29.2104 35.4125 31.0854 34.1625 32.7 32.6C34.3145 30.9854 35.5776 29.0974 36.489 26.9359C37.4005 24.7745 37.8562 22.4958 37.8562 20.1C37.8562 18.9021 37.752 17.7432 37.5437 16.6234C37.3354 15.5036 36.9968 14.4229 36.5281 13.3812C36.1114 12.3396 35.5906 11.337 34.9656 10.3734C34.3406 9.40987 33.6114 8.51143 32.7781 7.6781L19.8093 20.5687C19.7052 20.6729 19.588 20.738 19.4578 20.764C19.3276 20.7901 19.2104 20.7771 19.1062 20.725C18.95 20.6729 18.8328 20.5817 18.7546 20.4515C18.6765 20.3213 18.6375 20.2041 18.6375 20.1V2.52185ZM21.9968 13.3812C21.9447 13.3812 21.9057 13.3812 21.8796 13.3812C21.8536 13.3812 21.8145 13.3552 21.7625 13.3031C21.6062 13.251 21.489 13.1729 21.4109 13.0687C21.3328 12.9646 21.2937 12.8344 21.2937 12.6781V1.89685C21.2937 1.79268 21.3197 1.70154 21.3718 1.62341C21.4239 1.54529 21.476 1.48018 21.5281 1.4281C21.6322 1.32393 21.7234 1.25883 21.8015 1.23279C21.8796 1.20675 21.9708 1.21977 22.075 1.27185C22.8041 1.37602 23.5333 1.51925 24.2625 1.70154C24.9916 1.88383 25.6947 2.10518 26.3718 2.3656C27.101 2.57393 27.7911 2.84737 28.4421 3.18591C29.0932 3.52446 29.7052 3.87602 30.2781 4.2406C30.3302 4.29268 30.3822 4.37081 30.4343 4.47498C30.4864 4.57914 30.5125 4.68331 30.5125 4.78748C30.5645 4.89164 30.5645 4.98279 30.5125 5.06091C30.4604 5.13904 30.4083 5.23018 30.3562 5.33435L22.4656 13.1469C22.4135 13.251 22.3484 13.3161 22.2703 13.3422C22.1921 13.3682 22.101 13.3812 21.9968 13.3812ZM22.7 2.6781V11.1156L28.7937 4.94373C28.377 4.68331 27.9213 4.43591 27.4265 4.20154C26.9317 3.96716 26.4239 3.74581 25.9031 3.53748C25.3822 3.38123 24.8484 3.22498 24.3015 3.06873C23.7546 2.91248 23.2208 2.78227 22.7 2.6781Z"
      fill="#0E90E4"></path>
  </symbol>
  <symbol fill="none" xmlns="http://www.w3.org/2000/svg" viewBox="0 0 41 41" id="TouchSensitive">
    <g clip-path="url(#clip0_1_34)">
      <path
        d="M13.2468 23.4594C13.0385 23.4594 12.8692 23.3943 12.739 23.2641C12.6088 23.1339 12.5437 22.9646 12.5437 22.7563V7.52188C12.5437 7.10521 12.6348 6.71459 12.8171 6.35001C12.9994 5.98542 13.2468 5.67292 13.5593 5.41251C13.8718 5.10001 14.2364 4.86563 14.6531 4.70938C15.0697 4.55313 15.4864 4.47501 15.9031 4.47501C16.3718 4.47501 16.8015 4.55313 17.1921 4.70938C17.5828 4.86563 17.9343 5.07396 18.2468 5.33438C18.5593 5.64688 18.8067 5.98542 18.989 6.35001C19.1713 6.71459 19.2625 7.10521 19.2625 7.52188V18.7719C19.2625 18.9281 19.1973 19.0714 19.0671 19.2016C18.9369 19.3318 18.7677 19.3969 18.5593 19.3969C18.4031 19.3969 18.2598 19.3318 18.1296 19.2016C17.9994 19.0714 17.9343 18.9281 17.9343 18.7719V7.52188C17.9343 7.26146 17.8822 7.04011 17.7781 6.85782C17.6739 6.67553 17.5177 6.50626 17.3093 6.35001C17.101 6.14167 16.8796 5.99844 16.6453 5.92032C16.4109 5.84219 16.1635 5.80313 15.9031 5.80313C15.6427 5.80313 15.3953 5.85521 15.1609 5.95938C14.9265 6.06355 14.7052 6.19376 14.4968 6.35001C14.3406 6.50626 14.2104 6.68855 14.1062 6.89688C14.002 7.10521 13.95 7.31355 13.95 7.52188V22.7563C13.95 22.9646 13.8848 23.1339 13.7546 23.2641C13.6244 23.3943 13.4552 23.4594 13.2468 23.4594ZM23.95 22.1313C23.7416 22.1313 23.5723 22.0662 23.4421 21.9359C23.3119 21.8057 23.2468 21.6365 23.2468 21.4281V17.5219C23.2468 17.3135 23.1947 17.1052 23.0906 16.8969C22.9864 16.6885 22.8302 16.5063 22.6218 16.35C22.4656 16.1938 22.2572 16.0635 21.9968 15.9594C21.7364 15.8552 21.476 15.8031 21.2156 15.8031C20.9552 15.8031 20.7078 15.8422 20.4734 15.9203C20.239 15.9984 20.0437 16.1417 19.8875 16.35C19.6791 16.5063 19.5229 16.6755 19.4187 16.8578C19.3145 17.0401 19.2625 17.2615 19.2625 17.5219V21.4281C19.2625 21.6365 19.1973 21.8057 19.0671 21.9359C18.9369 22.0662 18.7677 22.1313 18.5593 22.1313C18.4031 22.1313 18.2598 22.0662 18.1296 21.9359C17.9994 21.8057 17.9343 21.6365 17.9343 21.4281V17.5219C17.9343 17.1052 18.0255 16.7146 18.2078 16.35C18.3901 15.9854 18.6375 15.6469 18.95 15.3344C19.2104 15.074 19.5489 14.8656 19.9656 14.7094C20.3822 14.5531 20.7989 14.475 21.2156 14.475C21.6843 14.475 22.114 14.5531 22.5046 14.7094C22.8953 14.8656 23.2468 15.1 23.5593 15.4125C23.8718 15.6729 24.1192 15.9854 24.3015 16.35C24.4838 16.7146 24.575 17.1052 24.575 17.5219V21.4281C24.575 21.6365 24.5098 21.8057 24.3796 21.9359C24.2494 22.0662 24.1062 22.1313 23.95 22.1313ZM29.2625 23.4594C29.0541 23.4594 28.8848 23.3943 28.7546 23.2641C28.6244 23.1339 28.5593 22.9646 28.5593 22.7563V19.2406C28.5593 18.9802 28.5072 18.7458 28.4031 18.5375C28.2989 18.3292 28.1427 18.1469 27.9343 17.9906C27.7781 17.8344 27.5828 17.7042 27.3484 17.6C27.114 17.4958 26.8666 17.4438 26.6062 17.4438C26.3458 17.4438 26.0854 17.4958 25.825 17.6C25.5645 17.7042 25.3562 17.8344 25.2 17.9906C24.9916 18.1469 24.8354 18.3292 24.7312 18.5375C24.627 18.7458 24.575 18.9542 24.575 19.1625V22.7563C24.575 22.9646 24.5098 23.1339 24.3796 23.2641C24.2494 23.3943 24.1062 23.4594 23.95 23.4594C23.7416 23.4594 23.5723 23.3943 23.4421 23.2641C23.3119 23.1339 23.2468 22.9646 23.2468 22.7563V19.1625C23.2468 18.7458 23.338 18.3552 23.5203 17.9906C23.7026 17.626 23.95 17.3135 24.2625 17.0531C24.575 16.7406 24.9265 16.5063 25.3171 16.35C25.7078 16.1938 26.1375 16.1156 26.6062 16.1156C27.0229 16.1156 27.4395 16.2068 27.8562 16.3891C28.2729 16.5714 28.6375 16.7927 28.95 17.0531C29.2104 17.3135 29.4317 17.6391 29.614 18.0297C29.7963 18.4203 29.8875 18.824 29.8875 19.2406V22.7563C29.8875 22.9646 29.8223 23.1339 29.6921 23.2641C29.5619 23.3943 29.4187 23.4594 29.2625 23.4594ZM26.9968 40.1H17.5437C16.6062 40.1 15.7208 39.7484 14.8875 39.0453C14.0541 38.3422 13.2468 37.4438 12.4656 36.35C11.7364 35.2563 11.0463 34.0323 10.3953 32.6781C9.74422 31.324 9.1062 29.9698 8.4812 28.6156C8.22078 28.0948 7.98641 27.587 7.77808 27.0922C7.56974 26.5974 7.33537 26.1156 7.07495 25.6469C6.86662 25.2302 6.65828 24.8396 6.44995 24.475C6.24162 24.1104 6.05933 23.7979 5.90308 23.5375C5.69474 23.225 5.51245 22.8734 5.3562 22.4828C5.19995 22.0922 5.12183 21.6885 5.12183 21.2719C5.12183 20.9073 5.19995 20.5297 5.3562 20.1391C5.51245 19.7484 5.74683 19.3969 6.05933 19.0844C6.37183 18.7719 6.71037 18.5375 7.07495 18.3813C7.43953 18.225 7.83016 18.1208 8.24683 18.0688C8.66349 18.0688 9.05412 18.1469 9.4187 18.3031C9.78328 18.4594 10.1218 18.6677 10.4343 18.9281L14.4968 23.0688C14.6531 23.225 14.7182 23.3943 14.6921 23.5766C14.6661 23.7589 14.601 23.9021 14.4968 24.0063C14.3406 24.1625 14.1713 24.2406 13.989 24.2406C13.8067 24.2406 13.6635 24.1625 13.5593 24.0063L9.49683 19.8656C9.34058 19.7094 9.14526 19.5922 8.91089 19.5141C8.67651 19.4359 8.45516 19.4229 8.24683 19.475C8.03849 19.475 7.81714 19.5141 7.58276 19.5922C7.34839 19.6703 7.15308 19.8135 6.99683 20.0219C6.78849 20.1781 6.64526 20.3734 6.56714 20.6078C6.48901 20.8422 6.47599 21.0896 6.52808 21.35C6.52808 21.6104 6.56714 21.8578 6.64526 22.0922C6.72339 22.3266 6.84058 22.5479 6.99683 22.7563C7.20516 23.0167 7.41349 23.3422 7.62183 23.7328C7.83016 24.1234 8.03849 24.5531 8.24683 25.0219C8.50724 25.4385 8.75464 25.9073 8.98901 26.4281C9.22339 26.949 9.44474 27.4958 9.65308 28.0688C10.1739 29.1625 10.7468 30.3474 11.3718 31.6234C11.9968 32.8995 12.6218 34.0583 13.2468 35.1C13.9239 36.1417 14.627 37.0141 15.3562 37.7172C16.0854 38.4203 16.8145 38.7719 17.5437 38.7719H26.8406C27.0489 38.6677 27.5437 38.4073 28.325 37.9906C29.1062 37.574 29.9135 37.001 30.7468 36.2719C31.5281 35.5427 32.2572 34.6443 32.9343 33.5766C33.6114 32.5089 33.95 31.2719 33.95 29.8656V20.8813C33.95 20.6208 33.8848 20.3865 33.7546 20.1781C33.6244 19.9698 33.4812 19.7875 33.325 19.6313C33.1687 19.475 32.9734 19.3448 32.739 19.2406C32.5046 19.1365 32.2572 19.0844 31.9968 19.0844C31.7364 19.0844 31.489 19.1365 31.2546 19.2406C31.0203 19.3448 30.7989 19.475 30.5906 19.6313C30.3822 19.7875 30.213 19.9698 30.0828 20.1781C29.9526 20.3865 29.8875 20.5948 29.8875 20.8031V25.4125C29.8875 25.6208 29.8223 25.7901 29.6921 25.9203C29.5619 26.0505 29.4187 26.1156 29.2625 26.1156C29.0541 26.1156 28.8848 26.0505 28.7546 25.9203C28.6244 25.7901 28.5593 25.6208 28.5593 25.4125V20.8031C28.5593 20.3865 28.6635 19.9828 28.8718 19.5922C29.0802 19.2016 29.3406 18.876 29.6531 18.6156C29.9656 18.3552 30.3302 18.1469 30.7468 17.9906C31.1635 17.8344 31.5802 17.7563 31.9968 17.7563C32.4135 17.7563 32.8171 17.8474 33.2078 18.0297C33.5984 18.212 33.95 18.4333 34.2625 18.6938C34.575 19.0063 34.8223 19.3448 35.0046 19.7094C35.1869 20.074 35.2781 20.4646 35.2781 20.8813V29.8656C35.2781 33.3031 33.976 35.8422 31.3718 37.4828C28.7677 39.1234 27.3875 39.9698 27.2312 40.0219C27.1791 40.074 27.127 40.1 27.075 40.1C27.0229 40.1 26.9968 40.1 26.9968 40.1ZM13.2468 15.3344C13.1947 15.3344 13.1557 15.3214 13.1296 15.2953C13.1036 15.2693 13.0645 15.2563 13.0125 15.2563C12.752 15.1521 12.5177 15.0349 12.3093 14.9047C12.101 14.7745 11.8927 14.6573 11.6843 14.5531C11.476 14.3969 11.2807 14.2276 11.0984 14.0453C10.9161 13.863 10.7208 13.6938 10.5125 13.5375C10.1479 13.1729 9.82235 12.7693 9.53589 12.3266C9.24943 11.8839 9.00203 11.4281 8.7937 10.9594C8.58537 10.4906 8.42912 10.0089 8.32495 9.51407C8.22078 9.01928 8.1687 8.51147 8.1687 7.99063C8.1687 7.41771 8.22078 6.88386 8.32495 6.38907C8.42912 5.89428 8.58537 5.41251 8.7937 4.94376C9.00203 4.47501 9.24943 4.0323 9.53589 3.61563C9.82235 3.19896 10.1479 2.7823 10.5125 2.36563C11.2937 1.63646 12.1791 1.07657 13.1687 0.685944C14.1583 0.295319 15.1479 0.100006 16.1375 0.100006C17.1791 0.100006 18.1947 0.295319 19.1843 0.685944C20.1739 1.07657 21.0593 1.63646 21.8406 2.36563C22.2052 2.7823 22.5307 3.19896 22.8171 3.61563C23.1036 4.0323 23.351 4.47501 23.5593 4.94376C23.7677 5.41251 23.9239 5.9073 24.0281 6.42813C24.1322 6.94896 24.1843 7.4698 24.1843 7.99063C24.1843 8.51147 24.1322 9.01928 24.0281 9.51407C23.9239 10.0089 23.7677 10.4906 23.5593 10.9594C23.351 11.4281 23.1036 11.8839 22.8171 12.3266C22.5307 12.7693 22.2052 13.1729 21.8406 13.5375C21.6322 13.6938 21.4239 13.863 21.2156 14.0453C21.0072 14.2276 20.7989 14.3708 20.5906 14.475C20.3822 14.6313 20.1609 14.7745 19.9265 14.9047C19.6921 15.0349 19.4447 15.1521 19.1843 15.2563C19.0281 15.3083 18.8718 15.2953 18.7156 15.2172C18.5593 15.1391 18.4291 15.0219 18.325 14.8656C18.2729 14.7094 18.2859 14.5401 18.364 14.3578C18.4421 14.1755 18.5593 14.0583 18.7156 14.0063C18.9239 13.9021 19.1192 13.7979 19.3015 13.6938C19.4838 13.5896 19.6791 13.4854 19.8875 13.3813C20.0437 13.2771 20.213 13.1599 20.3953 13.0297C20.5776 12.8995 20.7468 12.7563 20.9031 12.6C21.2156 12.2875 21.489 11.949 21.7234 11.5844C21.9578 11.2198 22.1531 10.8552 22.3093 10.4906C22.4656 10.074 22.5958 9.6573 22.7 9.24063C22.8041 8.82397 22.8562 8.4073 22.8562 7.99063C22.8562 7.52188 22.8041 7.07917 22.7 6.66251C22.5958 6.24584 22.4656 5.85521 22.3093 5.49063C22.1531 5.07396 21.9578 4.69636 21.7234 4.35782C21.489 4.01928 21.2156 3.69376 20.9031 3.38126C20.226 2.70417 19.4838 2.20938 18.6765 1.89688C17.8692 1.58438 17.0229 1.42813 16.1375 1.42813C15.3041 1.42813 14.4838 1.58438 13.6765 1.89688C12.8692 2.20938 12.127 2.70417 11.45 3.38126C11.1375 3.69376 10.864 4.01928 10.6296 4.35782C10.3953 4.69636 10.2 5.07396 10.0437 5.49063C9.83537 5.85521 9.69214 6.24584 9.61401 6.66251C9.53589 7.07917 9.49683 7.52188 9.49683 7.99063C9.49683 8.4073 9.53589 8.82397 9.61401 9.24063C9.69214 9.6573 9.83537 10.074 10.0437 10.4906C10.2 10.8552 10.3953 11.2198 10.6296 11.5844C10.864 11.949 11.1375 12.2875 11.45 12.6C11.7625 12.9125 12.088 13.1859 12.4265 13.4203C12.7651 13.6547 13.1166 13.85 13.4812 14.0063C13.6375 14.0583 13.7546 14.1755 13.8328 14.3578C13.9109 14.5401 13.9239 14.7094 13.8718 14.8656C13.8197 15.0219 13.7416 15.1391 13.6375 15.2172C13.5333 15.2953 13.4031 15.3344 13.2468 15.3344Z"
        fill="#0E90E4"></path>
    </g>
    <defs>
      <clipPath id="clip0_1_34">
        <rect width="40" height="40" fill="white" transform="matrix(1 0 0 -1 0.199951 40.1)"></rect>
      </clipPath>
    </defs>
  </symbol>
  <symbol id="Email" xmlns="http://www.w3.org/2000/svg" viewBox="0 0 24 24">
    <path
      d="M4 20q-.825 0-1.412-.587T2 18V6q0-.825.588-1.412T4 4h16q.825 0 1.413.588T22 6v12q0 .825-.587 1.413T20 20zm8-7l8-5V6l-8 5l-8-5v2z" />
  </symbol>
  <symbol id="Web" xmlns="http://www.w3.org/2000/svg" viewBox="0 0 24 24">
    <path
      d="M4 20q-.825 0-1.412-.587T2 18V6q0-.825.588-1.412T4 4h16q.825 0 1.413.588T22 6v12q0 .825-.587 1.413T20 20zm0-2h10.5v-3.5H4zm12.5 0H20V9h-3.5zM4 12.5h10.5V9H4z" />
  </symbol>
  <symbol id="Admin" viewBox="0 0 12 11" xmlns="http://www.w3.org/2000/svg">
    <path
      d="M0.585938 11.625C0.554687 11.625 0.527344 11.6211 0.503906 11.6133C0.480469 11.6055 0.460938 11.5859 0.445312 11.5547C0.414062 11.5391 0.394531 11.5156 0.386719 11.4844C0.378906 11.4531 0.375 11.4141 0.375 11.3672L1.21875 7.71094C1.21875 7.69531 1.22266 7.67969 1.23047 7.66406C1.23828 7.64844 1.25 7.63281 1.26562 7.61719L8.01562 0.867188C8.09375 0.789063 8.17578 0.71875 8.26172 0.65625C8.34766 0.59375 8.44531 0.546875 8.55469 0.515625C8.64844 0.46875 8.74609 0.433594 8.84766 0.410156C8.94922 0.386719 9.04688 0.375 9.14062 0.375C9.21875 0.375 9.29297 0.382812 9.36328 0.398438C9.43359 0.414063 9.5 0.429687 9.5625 0.445312C9.625 0.476563 9.6875 0.511719 9.75 0.550781C9.8125 0.589844 9.86719 0.632812 9.91406 0.679688L11.3203 2.08594C11.3828 2.14844 11.4336 2.21484 11.4727 2.28516C11.5117 2.35547 11.5469 2.42969 11.5781 2.50781C11.5938 2.58594 11.6055 2.66797 11.6133 2.75391C11.6211 2.83984 11.6172 2.92969 11.6016 3.02344C11.6016 3.11719 11.5859 3.20703 11.5547 3.29297C11.5234 3.37891 11.4922 3.46094 11.4609 3.53906C11.4141 3.61719 11.3633 3.69531 11.3086 3.77344C11.2539 3.85156 11.1953 3.92187 11.1328 3.98438L4.38281 10.7344C4.36719 10.75 4.35156 10.7617 4.33594 10.7695C4.32031 10.7773 4.30469 10.7812 4.28906 10.7812L0.632812 11.625C0.617187 11.625 0.605469 11.625 0.597656 11.625C0.589844 11.625 0.585938 11.625 0.585938 11.625ZM1.59375 7.85156L0.84375 11.1562L4.14844 10.4062L10.8516 3.70312C10.8984 3.65625 10.9414 3.60156 10.9805 3.53906C11.0195 3.47656 11.0547 3.41406 11.0859 3.35156C11.1172 3.28906 11.1445 3.22656 11.168 3.16406C11.1914 3.10156 11.2109 3.03906 11.2266 2.97656C11.2422 2.85156 11.2344 2.73828 11.2031 2.63672C11.1719 2.53516 11.1172 2.44531 11.0391 2.36719L9.63281 0.960938C9.55469 0.882813 9.46875 0.832031 9.375 0.808594C9.28125 0.785156 9.20313 0.773438 9.14062 0.773438C9.0625 0.773438 8.98828 0.78125 8.91797 0.796875C8.84766 0.8125 8.77344 0.835937 8.69531 0.867188C8.63281 0.914062 8.56641 0.960938 8.49609 1.00781C8.42578 1.05469 8.35938 1.10156 8.29688 1.14844L1.59375 7.85156ZM9.9375 4.66406L7.19531 1.92188L7.47656 1.61719L10.2188 4.38281L9.9375 4.66406ZM8.88281 5.71875L6.14062 2.97656L6.42188 2.69531L9.16406 5.4375L8.88281 5.71875ZM4.45312 10.5703C4.07812 10.5703 3.71094 10.4844 3.35156 10.3125C2.99219 10.1406 2.67188 9.90625 2.39062 9.60938C2.09375 9.32812 1.85938 9.00781 1.6875 8.64844C1.51562 8.28906 1.42969 7.92188 1.42969 7.54688H1.82812C1.82812 7.85937 1.90625 8.17188 2.0625 8.48438C2.21875 8.79687 2.42187 9.07812 2.67188 9.32812C2.92188 9.57813 3.20313 9.78125 3.51562 9.9375C3.82812 10.0937 4.14063 10.1719 4.45312 10.1719V10.5703ZM2.50781 9.53906L2.22656 9.25781L7.33594 4.21875L7.61719 4.5L2.50781 9.53906Z" />
  </symbol>
  <symbol id="Phone" xmlns="http://www.w3.org/2000/svg" viewBox="0 0 24 24">
    <path
      d="M19.077 11.462q-.173-2.83-2.153-4.809T12.116 4.5v-1q1.625.077 3.04.722q1.417.645 2.485 1.713t1.714 2.485q.645 1.416.722 3.041zm-4 0q-.173-1.154-.99-1.981T12.116 8.5v-1q1.575.154 2.681 1.27t1.28 2.692zM18.931 20q-2.529 0-5.185-1.266t-4.944-3.555q-2.27-2.288-3.536-4.935T4 5.07q0-.45.3-.76T5.05 4h2.473q.408 0 .712.257t.411.659L9.142 7.3q.07.42-.025.733t-.333.513L6.59 10.592q.616 1.117 1.361 2.076t1.59 1.817q.87.87 1.874 1.62q1.004.749 2.204 1.414l2.139-2.177q.244-.263.549-.347q.304-.083.674-.033l2.103.43q.408.1.662.411t.254.712v2.435q0 .45-.31.75t-.76.3M6.122 9.654l1.92-1.765q.095-.077.124-.212q.03-.135-.01-.25l-.443-2.12q-.039-.153-.135-.23T7.327 5H5.275q-.115 0-.192.077t-.077.192q.029 1.025.321 2.14t.794 2.245m8.45 8.334q1.014.502 2.16.743q1.148.24 2 .257q.115 0 .192-.077T19 18.72v-2.008q0-.153-.077-.25q-.077-.096-.23-.134l-1.85-.379q-.116-.039-.203-.01q-.086.03-.182.125zm0 0" />
  </symbol>
</svg>