<svg width="41" height="41" viewBox="0 0 41 41" fill="none" xmlns="http://www.w3.org/2000/svg">
<g clip-path="url(#clip0_1_34)">
<path d="M13.2468 23.4594C13.0385 23.4594 12.8692 23.3943 12.739 23.2641C12.6088 23.1339 12.5437 22.9646 12.5437 22.7563V7.52188C12.5437 7.10521 12.6348 6.71459 12.8171 6.35001C12.9994 5.98542 13.2468 5.67292 13.5593 5.41251C13.8718 5.10001 14.2364 4.86563 14.6531 4.70938C15.0697 4.55313 15.4864 4.47501 15.9031 4.47501C16.3718 4.47501 16.8015 4.55313 17.1921 4.70938C17.5828 4.86563 17.9343 5.07396 18.2468 5.33438C18.5593 5.64688 18.8067 5.98542 18.989 6.35001C19.1713 6.71459 19.2625 7.10521 19.2625 7.52188V18.7719C19.2625 18.9281 19.1973 19.0714 19.0671 19.2016C18.9369 19.3318 18.7677 19.3969 18.5593 19.3969C18.4031 19.3969 18.2598 19.3318 18.1296 19.2016C17.9994 19.0714 17.9343 18.9281 17.9343 18.7719V7.52188C17.9343 7.26146 17.8822 7.04011 17.7781 6.85782C17.6739 6.67553 17.5177 6.50626 17.3093 6.35001C17.101 6.14167 16.8796 5.99844 16.6453 5.92032C16.4109 5.84219 16.1635 5.80313 15.9031 5.80313C15.6427 5.80313 15.3953 5.85521 15.1609 5.95938C14.9265 6.06355 14.7052 6.19376 14.4968 6.35001C14.3406 6.50626 14.2104 6.68855 14.1062 6.89688C14.002 7.10521 13.95 7.31355 13.95 7.52188V22.7563C13.95 22.9646 13.8848 23.1339 13.7546 23.2641C13.6244 23.3943 13.4552 23.4594 13.2468 23.4594ZM23.95 22.1313C23.7416 22.1313 23.5723 22.0662 23.4421 21.9359C23.3119 21.8057 23.2468 21.6365 23.2468 21.4281V17.5219C23.2468 17.3135 23.1947 17.1052 23.0906 16.8969C22.9864 16.6885 22.8302 16.5063 22.6218 16.35C22.4656 16.1938 22.2572 16.0635 21.9968 15.9594C21.7364 15.8552 21.476 15.8031 21.2156 15.8031C20.9552 15.8031 20.7078 15.8422 20.4734 15.9203C20.239 15.9984 20.0437 16.1417 19.8875 16.35C19.6791 16.5063 19.5229 16.6755 19.4187 16.8578C19.3145 17.0401 19.2625 17.2615 19.2625 17.5219V21.4281C19.2625 21.6365 19.1973 21.8057 19.0671 21.9359C18.9369 22.0662 18.7677 22.1313 18.5593 22.1313C18.4031 22.1313 18.2598 22.0662 18.1296 21.9359C17.9994 21.8057 17.9343 21.6365 17.9343 21.4281V17.5219C17.9343 17.1052 18.0255 16.7146 18.2078 16.35C18.3901 15.9854 18.6375 15.6469 18.95 15.3344C19.2104 15.074 19.5489 14.8656 19.9656 14.7094C20.3822 14.5531 20.7989 14.475 21.2156 14.475C21.6843 14.475 22.114 14.5531 22.5046 14.7094C22.8953 14.8656 23.2468 15.1 23.5593 15.4125C23.8718 15.6729 24.1192 15.9854 24.3015 16.35C24.4838 16.7146 24.575 17.1052 24.575 17.5219V21.4281C24.575 21.6365 24.5098 21.8057 24.3796 21.9359C24.2494 22.0662 24.1062 22.1313 23.95 22.1313ZM29.2625 23.4594C29.0541 23.4594 28.8848 23.3943 28.7546 23.2641C28.6244 23.1339 28.5593 22.9646 28.5593 22.7563V19.2406C28.5593 18.9802 28.5072 18.7458 28.4031 18.5375C28.2989 18.3292 28.1427 18.1469 27.9343 17.9906C27.7781 17.8344 27.5828 17.7042 27.3484 17.6C27.114 17.4958 26.8666 17.4438 26.6062 17.4438C26.3458 17.4438 26.0854 17.4958 25.825 17.6C25.5645 17.7042 25.3562 17.8344 25.2 17.9906C24.9916 18.1469 24.8354 18.3292 24.7312 18.5375C24.627 18.7458 24.575 18.9542 24.575 19.1625V22.7563C24.575 22.9646 24.5098 23.1339 24.3796 23.2641C24.2494 23.3943 24.1062 23.4594 23.95 23.4594C23.7416 23.4594 23.5723 23.3943 23.4421 23.2641C23.3119 23.1339 23.2468 22.9646 23.2468 22.7563V19.1625C23.2468 18.7458 23.338 18.3552 23.5203 17.9906C23.7026 17.626 23.95 17.3135 24.2625 17.0531C24.575 16.7406 24.9265 16.5063 25.3171 16.35C25.7078 16.1938 26.1375 16.1156 26.6062 16.1156C27.0229 16.1156 27.4395 16.2068 27.8562 16.3891C28.2729 16.5714 28.6375 16.7927 28.95 17.0531C29.2104 17.3135 29.4317 17.6391 29.614 18.0297C29.7963 18.4203 29.8875 18.824 29.8875 19.2406V22.7563C29.8875 22.9646 29.8223 23.1339 29.6921 23.2641C29.5619 23.3943 29.4187 23.4594 29.2625 23.4594ZM26.9968 40.1H17.5437C16.6062 40.1 15.7208 39.7484 14.8875 39.0453C14.0541 38.3422 13.2468 37.4438 12.4656 36.35C11.7364 35.2563 11.0463 34.0323 10.3953 32.6781C9.74422 31.324 9.1062 29.9698 8.4812 28.6156C8.22078 28.0948 7.98641 27.587 7.77808 27.0922C7.56974 26.5974 7.33537 26.1156 7.07495 25.6469C6.86662 25.2302 6.65828 24.8396 6.44995 24.475C6.24162 24.1104 6.05933 23.7979 5.90308 23.5375C5.69474 23.225 5.51245 22.8734 5.3562 22.4828C5.19995 22.0922 5.12183 21.6885 5.12183 21.2719C5.12183 20.9073 5.19995 20.5297 5.3562 20.1391C5.51245 19.7484 5.74683 19.3969 6.05933 19.0844C6.37183 18.7719 6.71037 18.5375 7.07495 18.3813C7.43953 18.225 7.83016 18.1208 8.24683 18.0688C8.66349 18.0688 9.05412 18.1469 9.4187 18.3031C9.78328 18.4594 10.1218 18.6677 10.4343 18.9281L14.4968 23.0688C14.6531 23.225 14.7182 23.3943 14.6921 23.5766C14.6661 23.7589 14.601 23.9021 14.4968 24.0063C14.3406 24.1625 14.1713 24.2406 13.989 24.2406C13.8067 24.2406 13.6635 24.1625 13.5593 24.0063L9.49683 19.8656C9.34058 19.7094 9.14526 19.5922 8.91089 19.5141C8.67651 19.4359 8.45516 19.4229 8.24683 19.475C8.03849 19.475 7.81714 19.5141 7.58276 19.5922C7.34839 19.6703 7.15308 19.8135 6.99683 20.0219C6.78849 20.1781 6.64526 20.3734 6.56714 20.6078C6.48901 20.8422 6.47599 21.0896 6.52808 21.35C6.52808 21.6104 6.56714 21.8578 6.64526 22.0922C6.72339 22.3266 6.84058 22.5479 6.99683 22.7563C7.20516 23.0167 7.41349 23.3422 7.62183 23.7328C7.83016 24.1234 8.03849 24.5531 8.24683 25.0219C8.50724 25.4385 8.75464 25.9073 8.98901 26.4281C9.22339 26.949 9.44474 27.4958 9.65308 28.0688C10.1739 29.1625 10.7468 30.3474 11.3718 31.6234C11.9968 32.8995 12.6218 34.0583 13.2468 35.1C13.9239 36.1417 14.627 37.0141 15.3562 37.7172C16.0854 38.4203 16.8145 38.7719 17.5437 38.7719H26.8406C27.0489 38.6677 27.5437 38.4073 28.325 37.9906C29.1062 37.574 29.9135 37.001 30.7468 36.2719C31.5281 35.5427 32.2572 34.6443 32.9343 33.5766C33.6114 32.5089 33.95 31.2719 33.95 29.8656V20.8813C33.95 20.6208 33.8848 20.3865 33.7546 20.1781C33.6244 19.9698 33.4812 19.7875 33.325 19.6313C33.1687 19.475 32.9734 19.3448 32.739 19.2406C32.5046 19.1365 32.2572 19.0844 31.9968 19.0844C31.7364 19.0844 31.489 19.1365 31.2546 19.2406C31.0203 19.3448 30.7989 19.475 30.5906 19.6313C30.3822 19.7875 30.213 19.9698 30.0828 20.1781C29.9526 20.3865 29.8875 20.5948 29.8875 20.8031V25.4125C29.8875 25.6208 29.8223 25.7901 29.6921 25.9203C29.5619 26.0505 29.4187 26.1156 29.2625 26.1156C29.0541 26.1156 28.8848 26.0505 28.7546 25.9203C28.6244 25.7901 28.5593 25.6208 28.5593 25.4125V20.8031C28.5593 20.3865 28.6635 19.9828 28.8718 19.5922C29.0802 19.2016 29.3406 18.876 29.6531 18.6156C29.9656 18.3552 30.3302 18.1469 30.7468 17.9906C31.1635 17.8344 31.5802 17.7563 31.9968 17.7563C32.4135 17.7563 32.8171 17.8474 33.2078 18.0297C33.5984 18.212 33.95 18.4333 34.2625 18.6938C34.575 19.0063 34.8223 19.3448 35.0046 19.7094C35.1869 20.074 35.2781 20.4646 35.2781 20.8813V29.8656C35.2781 33.3031 33.976 35.8422 31.3718 37.4828C28.7677 39.1234 27.3875 39.9698 27.2312 40.0219C27.1791 40.074 27.127 40.1 27.075 40.1C27.0229 40.1 26.9968 40.1 26.9968 40.1ZM13.2468 15.3344C13.1947 15.3344 13.1557 15.3214 13.1296 15.2953C13.1036 15.2693 13.0645 15.2563 13.0125 15.2563C12.752 15.1521 12.5177 15.0349 12.3093 14.9047C12.101 14.7745 11.8927 14.6573 11.6843 14.5531C11.476 14.3969 11.2807 14.2276 11.0984 14.0453C10.9161 13.863 10.7208 13.6938 10.5125 13.5375C10.1479 13.1729 9.82235 12.7693 9.53589 12.3266C9.24943 11.8839 9.00203 11.4281 8.7937 10.9594C8.58537 10.4906 8.42912 10.0089 8.32495 9.51407C8.22078 9.01928 8.1687 8.51147 8.1687 7.99063C8.1687 7.41771 8.22078 6.88386 8.32495 6.38907C8.42912 5.89428 8.58537 5.41251 8.7937 4.94376C9.00203 4.47501 9.24943 4.0323 9.53589 3.61563C9.82235 3.19896 10.1479 2.7823 10.5125 2.36563C11.2937 1.63646 12.1791 1.07657 13.1687 0.685944C14.1583 0.295319 15.1479 0.100006 16.1375 0.100006C17.1791 0.100006 18.1947 0.295319 19.1843 0.685944C20.1739 1.07657 21.0593 1.63646 21.8406 2.36563C22.2052 2.7823 22.5307 3.19896 22.8171 3.61563C23.1036 4.0323 23.351 4.47501 23.5593 4.94376C23.7677 5.41251 23.9239 5.9073 24.0281 6.42813C24.1322 6.94896 24.1843 7.4698 24.1843 7.99063C24.1843 8.51147 24.1322 9.01928 24.0281 9.51407C23.9239 10.0089 23.7677 10.4906 23.5593 10.9594C23.351 11.4281 23.1036 11.8839 22.8171 12.3266C22.5307 12.7693 22.2052 13.1729 21.8406 13.5375C21.6322 13.6938 21.4239 13.863 21.2156 14.0453C21.0072 14.2276 20.7989 14.3708 20.5906 14.475C20.3822 14.6313 20.1609 14.7745 19.9265 14.9047C19.6921 15.0349 19.4447 15.1521 19.1843 15.2563C19.0281 15.3083 18.8718 15.2953 18.7156 15.2172C18.5593 15.1391 18.4291 15.0219 18.325 14.8656C18.2729 14.7094 18.2859 14.5401 18.364 14.3578C18.4421 14.1755 18.5593 14.0583 18.7156 14.0063C18.9239 13.9021 19.1192 13.7979 19.3015 13.6938C19.4838 13.5896 19.6791 13.4854 19.8875 13.3813C20.0437 13.2771 20.213 13.1599 20.3953 13.0297C20.5776 12.8995 20.7468 12.7563 20.9031 12.6C21.2156 12.2875 21.489 11.949 21.7234 11.5844C21.9578 11.2198 22.1531 10.8552 22.3093 10.4906C22.4656 10.074 22.5958 9.6573 22.7 9.24063C22.8041 8.82397 22.8562 8.4073 22.8562 7.99063C22.8562 7.52188 22.8041 7.07917 22.7 6.66251C22.5958 6.24584 22.4656 5.85521 22.3093 5.49063C22.1531 5.07396 21.9578 4.69636 21.7234 4.35782C21.489 4.01928 21.2156 3.69376 20.9031 3.38126C20.226 2.70417 19.4838 2.20938 18.6765 1.89688C17.8692 1.58438 17.0229 1.42813 16.1375 1.42813C15.3041 1.42813 14.4838 1.58438 13.6765 1.89688C12.8692 2.20938 12.127 2.70417 11.45 3.38126C11.1375 3.69376 10.864 4.01928 10.6296 4.35782C10.3953 4.69636 10.2 5.07396 10.0437 5.49063C9.83537 5.85521 9.69214 6.24584 9.61401 6.66251C9.53589 7.07917 9.49683 7.52188 9.49683 7.99063C9.49683 8.4073 9.53589 8.82397 9.61401 9.24063C9.69214 9.6573 9.83537 10.074 10.0437 10.4906C10.2 10.8552 10.3953 11.2198 10.6296 11.5844C10.864 11.949 11.1375 12.2875 11.45 12.6C11.7625 12.9125 12.088 13.1859 12.4265 13.4203C12.7651 13.6547 13.1166 13.85 13.4812 14.0063C13.6375 14.0583 13.7546 14.1755 13.8328 14.3578C13.9109 14.5401 13.9239 14.7094 13.8718 14.8656C13.8197 15.0219 13.7416 15.1391 13.6375 15.2172C13.5333 15.2953 13.4031 15.3344 13.2468 15.3344Z" fill="#0E90E4"/>
</g>
<defs>
<clipPath id="clip0_1_34">
<rect width="40" height="40" fill="white" transform="matrix(1 0 0 -1 0.199951 40.1)"/>
</clipPath>
</defs>
</svg>
